<?xml version="1.0" encoding="utf-8"?>
<!-- Generator: Adobe Illustrator 26.5.0, SVG Export Plug-In . SVG Version: 6.00 Build 0)  -->
<svg version="1.1" id="Layer_1" xmlns="http://www.w3.org/2000/svg" xmlns:xlink="http://www.w3.org/1999/xlink" x="0px" y="0px"
	 viewBox="0 0 250 194.6" style="enable-background:new 0 0 250 194.6;" xml:space="preserve">
<style type="text/css">
	.st0{fill:#F7AF41;}
	.st1{fill:#721146;}
	.st2{fill:#AC2746;}
	.st3{fill:#E63C45;}
	.st4{fill:#F7AF41;stroke:#FFFFFF;stroke-width:2.0773;stroke-miterlimit:10;}
	.st5{fill:#6A593D;}
	.st6{fill:#61A134;}
	.st7{fill-rule:evenodd;clip-rule:evenodd;fill:#FFFFFF;}
	.st8{fill-rule:evenodd;clip-rule:evenodd;fill:#F7AF41;}
	.st9{fill-rule:evenodd;clip-rule:evenodd;fill:#7EC54B;}
	.st10{fill-rule:evenodd;clip-rule:evenodd;fill:#61A134;}
	.st11{fill-rule:evenodd;clip-rule:evenodd;fill:#E63C45;}
	.st12{fill-rule:evenodd;clip-rule:evenodd;fill:#CC8042;}
	.st13{fill-rule:evenodd;clip-rule:evenodd;fill:#FFE7C5;}
	.st14{fill-rule:evenodd;clip-rule:evenodd;fill:#721146;}
	.st15{fill-rule:evenodd;clip-rule:evenodd;fill:#A9F076;}
	.st16{fill-rule:evenodd;clip-rule:evenodd;fill:#C72E36;}
	.st17{fill-rule:evenodd;clip-rule:evenodd;fill:#FFC928;}
	.st18{fill-rule:evenodd;clip-rule:evenodd;fill:#D3922C;}
	.st19{fill-rule:evenodd;clip-rule:evenodd;fill:#FC6068;}
</style>
<g>
	<g>
		<path class="st0" d="M169.5,83.6c-15.9-6-32.6-9.1-49.5-9.3c0-0.2-0.2-0.3-0.4-0.3c0.1-0.5,0.2-1,0.3-1.5c0-0.7,0-1.4,0-2.1
			c0-0.7-0.1-1.1-0.4-1.5c0.1-0.6,0.3-1.2,0.4-1.8c0-1.5,0-3,0.1-4.4c-0.1-12.1,8.1-22.1,26.7-25.9c9.9-2.6,16-4.6,17.7-7.3
			c-1.3-3.6-4.3-5.9-8.7-6.7c-0.7-0.1-1.5-0.3-2.2-0.4c-3.3-0.6-6.4-0.3-9.1,0.7c-0.1,0-0.3,0-0.4,0c2.2-2.9,6.8-4,13.8-2.6
			c2.9,0.6,5.5,2,7.9,4.2c0-0.1,0-0.2,0-0.3c-1.6-3.4-4.6-5.7-8.9-6.5c-0.8-0.1-1.5-0.3-2.3-0.4c-6-1.1-10.3,0.3-12.6,3.7
			c-0.5,1-0.7,1.9-0.7,2.7c-0.1,0.6-0.2,1.1-0.2,1.7c0.1,0.2,0.2,0.5,0.4,0.7c-4.4-0.5-8.9-0.8-13.3-1c0,0.7,0,1.4-0.1,2.1
			c0.1,0.4,0.4,0.6,0.8,0.6c3.8,0.2,7.5,0.4,11.2,0.8c0.6,0.1,0.9,0.4,0.8,0.7c-0.1,0.6-0.2,1.2-0.2,1.8c-4.9-0.5-9.8-0.9-14.7-1
			c-0.6-1.8-0.8-4.2-0.7-7.1c0.1-3,0.2-6,0.2-8.9c0.2-8.3,8.9-13.6,26.6-12.4c1.1,0,3.1,0.1,6.2,0.7c1,0.2,2,0.4,2.9,0.6
			c15.1,3,23.8,9.5,25.9,17.1c0.4,3.3,0.1,6-0.5,8c-0.3,0.8-0.5,1.5-0.8,2.3c-2.7,8.2-13.4,10.8-31,12.3
			c-10.9,2.4-16.1,6.4-16.5,10.1c0,0.2-0.1,0.4-0.1,0.6c0.4,0.4,0.7,0.7,1.1,1.1c0.5,0,1.1-0.1,1.6-0.1c7.3,0.7,13,1.7,17,2.7
			c0.3-0.2,0.5-0.4,0.8-0.7c0.6-2.8,1.2-5.6,1.8-8.4c9.3,2,15.7,4.2,19.9,5.7c0,0.1,0,0.2,0,0.3c-2.6,6.1-5.7,14.3-9.2,24.7
			c-28.9-10.5-46.4-9.1-49.5-9.6c0,0.8,0,1.6-0.1,2.4c3.9,0.2,6.1,0.5,6.8,0.5c7.7,0.5,22.3,1.5,42,9c0,0.2,0.1,0.5,0.1,0.7
			C170.1,82.5,169.8,83.1,169.5,83.6z M141.7,52.7c-0.1,0-0.3,0-0.4,0c3-4,12.2-7.8,28.4-8.4c3.6-0.8,6.7-1.7,9.5-2.7
			c0.1,0,0.3,0.1,0.4,0.1c-4,3.4-12.6,4.7-25.6,6.1C149.4,48.7,145.3,50.3,141.7,52.7z"/>
		<g>
			<g>
				<g>
					<path class="st1" d="M9.4,85.4c-1.4-1.7-2.8-3.4-4.2-5.2c2.5-2.7,5-5.3,7.6-7.9l0,0c0.2-0.2,0.4-0.4,0.7-0.6
						c1.4-1.4,2.9-2.8,4.4-4.2c4.9-4.2,9.9-8,15.1-11.7c1,2,2.1,4,3.1,5.9c-3.2,2.3-6.3,4.7-9.3,7.2c2,2.1,3.9,4.2,5.8,6.3
						c4.1,5.4,8,10.8,11.9,16.3c-2.7,2.1-5.3,4.2-7.9,6.5c-4.5-6.2-9.2-12.4-13.8-18.5c-1.4-1.1-2.9-2.2-4.3-3.3
						C15.4,79.2,12.3,82.2,9.4,85.4z"/>
					<path class="st1" d="M51.5,71.1c2.8-1.9,5.6-3.7,8.4-5.4c-1.3-1.2-2.7-2.4-4.1-3.6C53,59.5,50,57,47,54.6
						C48.5,60.1,49.9,65.6,51.5,71.1z M50,87.5c-1.9-4.6-3.8-9.2-5.7-13.8c-1.8-7.2-3.4-14.5-4.8-21.8c2.1-1.3,4.1-2.5,6.2-3.8l0,0
						c0.5-0.3,0.9-0.5,1.4-0.8C58,54.9,68,63.4,76.9,72.6c-2.2,0.9-4.5,1.9-6.6,2.9c-1.4-1.6-2.7-3.1-4.1-4.7c-0.5-0.5-1-1-1.5-1.5
						c-3.6,2.9-7.1,5.9-10.5,9.1c0.6,1.7,1.2,3.4,1.8,5.1C54,84.8,52,86.1,50,87.5z"/>
					<path class="st1" d="M67.8,55.7c-1-2-1.6-4-1.8-6.1c-0.2-2.1,0-4.5,0.6-7.1c0.5-2.4,2.2-4.5,5.1-6.2c1.6-0.9,3.6-1.9,5.9-2.7
						c1.8-0.6,3.8-1.2,5.9-1.6c1.3-0.3,2.6-0.4,3.9-0.3c1.3,0.1,2.3,0.4,3.3,0.8c0.9,0.4,1.8,0.9,2.6,1.5c0.8,0.6,1.5,1.2,2.1,1.7
						c0.5,0.7,1,1.1,1.4,1.7c0.3,0.5,0.7,0.9,0.8,1.3c0.1,0.2,0.2,0.3,0.3,0.5c-2.5,1-5,2-7.5,3.1c-0.1-0.2-0.1-0.4-0.4-0.6
						c-0.1-0.3-0.5-0.6-1.2-1.2c-0.6-0.5-1.2-0.9-1.9-1.2c-0.7-0.3-1.8-0.4-3.1-0.2c-0.7,0-1.6,0.2-2.4,0.5
						c-0.7,0.2-1.2,0.5-1.9,0.8c-1.1,0.6-2.1,1.2-2.8,2c-0.7,0.8-1.3,1.5-1.6,2.2c-0.3,0.7-0.5,1.5-0.6,2.3
						c-0.1,0.8-0.1,1.5-0.1,2.2c0.2,0.7,0.1,1.3,0.4,1.8c0.1,0.6,0.3,0.9,0.3,1.3c0.1,0.1,0.1,0.3,0.2,0.4c0,0,0.1,0.2,0.2,0.3
						c0.1,0.3,0.3,0.6,0.5,1c0.3,0.4,0.6,0.9,0.8,1.4c0.2,0.5,0.6,1.1,1.1,1.6c0.4,0.6,0.9,1.1,1.4,1.6c0.5,0.5,1,1,1.7,1.4
						c0.6,0.4,1.3,0.7,1.9,1c0.7,0.3,1.4,0.4,2.2,0.4c0.8,0,1.7-0.2,2.5-0.4c1.3-0.4,2.4-1,3.5-1.7c1-0.7,1.8-1.4,2.2-2
						c0.4-0.7,0.9-1.3,1.2-2c0.3-0.7,0.4-1.1,0.6-1.5c0-0.2,0-0.4,0.1-0.6c2.4,0.3,4.7,0.6,7,0.9c0,0.1,0.1,0.3,0,0.6
						c0.1,0.3,0,0.8-0.2,1.5c-0.2,0.7-0.4,1.5-0.5,2.2c-0.3,0.8-0.7,1.5-1.3,2.5c-0.6,0.9-1.4,1.8-2.3,2.6c-0.9,0.8-2.2,1.7-3.7,2.4
						c-1.4,0.8-3.1,1.4-4.9,2c-0.1,0-0.2,0.1-0.2,0.1C80.5,70.6,73.6,66.9,67.8,55.7z"/>
					<path class="st1" d="M110,43.6c0,0.1,0.1,0.3,0.1,0.4c0.1,0.4,0.2,0.7,0.5,1.3c0.3,0.7,0.6,1.4,0.9,2.2
						c0.3,0.8,0.8,1.6,1.4,2.4c0.6,0.8,1.3,1.5,1.9,2.1c0.7,0.7,1.5,1.1,2.5,1.5c1,0.4,2,0.5,3.2,0.4c0.1,0,0.2,0,0.3,0
						c0,0,0.1,0,0.1,0c0,0,0.1,0,0.1,0c0.1,0,0.2,0,0.3,0c1.1-0.2,2.1-0.5,2.9-1c0.8-0.6,1.5-1.2,1.9-2c0.4-0.8,0.8-1.6,1.1-2.5
						c0.3-0.9,0.4-1.8,0.4-2.6c0-0.9,0-1.6,0-2.3c0-0.7-0.1-1.2-0.1-1.7c0-0.2-0.1-0.4-0.1-0.7c0-0.2-0.1-0.5-0.1-0.9
						c-0.1-0.4-0.3-1-0.7-2c-0.4-0.9-0.9-1.8-1.6-2.6c-0.6-0.8-1.4-1.5-2.5-2.3c-1.1-0.8-2.4-1.2-3.9-1.4c-0.6-0.1-1.2-0.1-1.7,0
						c-0.7,0.2-1.5,0.4-2.2,0.6c-1.3,0.6-2.3,1.3-3.1,2.3c-0.8,1-1.3,1.8-1.4,2.8c-0.2,0.9-0.4,1.8-0.4,2.7c-0.1,0.9,0,1.6,0.1,2
						c0.1,0.3,0.1,0.6,0.2,0.8C109.9,42.9,109.9,43.2,110,43.6z M101.6,44.3c-0.5-1.8-0.8-3.7-0.7-5.7c0.1-2.2,0.8-4.6,1.9-7.3
						c1.3-3.1,5.4-5.3,11.9-6.3c6.6-0.7,11.3,0.4,14,3.1c2.4,2.4,4,4.5,5,6.6c1,1.9,1.5,3.8,1.7,5.7c0.4,3.5,0.4,6.6,0,9
						c-0.7,4-2.5,6.9-5.2,8.8c-2.2,1.2-4.9,1.9-8.1,2.4c-3.3,0.3-6.1,0.1-8.7-0.6c-3.3-1.2-5.9-3.6-8.1-7.3
						C103.7,50.6,102.7,47.8,101.6,44.3z"/>
				</g>
				<g>
					<path class="st2" d="M6.9,86.1c-1.4-1.7-2.8-3.4-4.3-5.1c2.5-2.8,5-5.5,7.6-8.1l0,0c0.2-0.2,0.4-0.3,0.5-0.5
						c1.5-1.5,3-2.9,4.5-4.3c4.8-4.3,9.9-8.2,15.1-11.9c1.1,2,2.1,3.9,3.2,5.9c-3.1,2.3-6.2,4.7-9.2,7.3c2,2.1,4,4.1,5.9,6.2
						c4.1,5.3,8.1,10.6,12.1,16.1c-2.7,2.1-5.3,4.3-7.9,6.7c-4.6-6.2-9.3-12.3-14.1-18.3c-1.5-1-2.9-2.1-4.4-3.1
						C12.8,79.7,9.8,82.8,6.9,86.1z"/>
					<path class="st2" d="M49.1,70.9c2.7-1.9,5.6-3.8,8.4-5.5c-1.4-1.2-2.9-2.4-4.3-3.5c-2.9-2.5-5.9-5-8.9-7.4
						C45.8,60,47.4,65.5,49.1,70.9z M47.7,87.4c-2-4.6-3.9-9.1-5.9-13.7c-1.8-7.2-3.5-14.4-5.1-21.8c2.1-1.3,4.1-2.6,6.2-3.9l0,0
						c0.5-0.3,0.9-0.5,1.4-0.8C55.5,54.6,65.6,62.9,74.6,72c-2.2,0.9-4.5,1.9-6.7,3c-1.4-1.6-2.8-3.1-4.2-4.6c-0.5-0.5-1-1-1.5-1.4
						c-3.6,2.9-7,6-10.2,9.1c0.6,1.7,1.2,3.5,1.8,5.2C51.7,84.6,49.7,86,47.7,87.4z"/>
					<path class="st2" d="M65.3,55.3c-1.1-2-1.7-4-1.9-6.1c-0.2-2.1,0-4.5,0.5-7.1c0.5-2.4,2.2-4.5,5.1-6.2c1.6-1,3.6-1.9,5.9-2.8
						c1.8-0.6,3.8-1.2,5.9-1.7c1.3-0.3,2.7-0.4,3.9-0.3c1.3,0.1,2.3,0.4,3.4,0.7c0.9,0.4,1.9,0.9,2.7,1.4c0.8,0.6,1.5,1.2,2.1,1.7
						c0.5,0.7,1,1.1,1.5,1.7c0.3,0.5,0.7,0.9,0.9,1.3c0.1,0.2,0.2,0.3,0.3,0.5c-2.5,1-5,2.1-7.5,3.2c-0.1-0.2-0.1-0.4-0.4-0.6
						c-0.1-0.3-0.5-0.6-1.2-1.1c-0.6-0.5-1.3-0.9-2-1.2c-0.7-0.3-1.8-0.3-3.1-0.2c-0.7,0-1.6,0.2-2.4,0.5c-0.7,0.2-1.2,0.5-1.9,0.9
						c-1.1,0.6-2.1,1.3-2.8,2c-0.7,0.8-1.3,1.5-1.6,2.2c-0.3,0.7-0.5,1.5-0.6,2.3c-0.1,0.8-0.1,1.5,0,2.2c0.2,0.7,0.2,1.3,0.4,1.8
						c0.1,0.6,0.3,0.9,0.3,1.3c0.1,0.1,0.1,0.3,0.2,0.4c0,0,0.1,0.2,0.2,0.3c0.1,0.3,0.3,0.6,0.5,1c0.3,0.4,0.6,0.9,0.8,1.4
						c0.2,0.5,0.6,1.1,1.2,1.6c0.4,0.6,0.9,1.1,1.4,1.6c0.5,0.5,1,1,1.7,1.4c0.6,0.4,1.3,0.7,2,1c0.7,0.3,1.4,0.4,2.2,0.4
						c0.8,0,1.7-0.2,2.5-0.5c1.3-0.5,2.4-1,3.5-1.8c1-0.7,1.8-1.4,2.2-2.1c0.4-0.7,0.9-1.4,1.2-2c0.3-0.7,0.4-1.1,0.6-1.5
						c0-0.2,0-0.4,0.1-0.6c2.4,0.2,4.7,0.5,7.1,0.8c0,0.1,0.1,0.3,0,0.6c0.1,0.3,0,0.8-0.2,1.5c-0.2,0.7-0.4,1.5-0.5,2.2
						c-0.3,0.8-0.7,1.5-1.3,2.5c-0.6,0.9-1.4,1.8-2.3,2.7c-0.9,0.8-2.1,1.7-3.7,2.5c-1.4,0.8-3.1,1.5-4.9,2.1
						c-0.1,0-0.2,0.1-0.2,0.1C78.2,70,71.3,66.4,65.3,55.3z"/>
					<path class="st2" d="M107.7,42.5c0,0.1,0.1,0.3,0.1,0.4c0.1,0.4,0.2,0.7,0.5,1.3c0.3,0.7,0.6,1.4,1,2.2
						c0.3,0.8,0.8,1.6,1.4,2.4c0.6,0.8,1.3,1.4,2,2.1c0.7,0.7,1.6,1.1,2.6,1.5c1,0.3,2.1,0.5,3.2,0.3c0.1,0,0.2,0,0.3,0
						c0,0,0.1,0,0.1,0s0.1,0,0.1,0c0.1,0,0.2,0,0.3,0c1.1-0.2,2.1-0.5,2.9-1.1c0.8-0.6,1.5-1.2,1.9-2c0.4-0.8,0.8-1.6,1-2.5
						c0.2-0.9,0.4-1.8,0.4-2.6c0-0.9,0-1.6,0-2.3c0-0.7-0.1-1.2-0.2-1.7c0-0.2-0.1-0.4-0.1-0.7c0-0.2-0.1-0.5-0.1-0.9
						c-0.1-0.4-0.3-1-0.8-2c-0.4-0.9-0.9-1.8-1.6-2.6c-0.6-0.8-1.4-1.5-2.6-2.3c-1.2-0.7-2.4-1.2-3.9-1.4c-0.6-0.1-1.2,0-1.7,0
						c-0.6,0.1-1.1,0.3-1.6,0.4c-1.3,0.6-2.3,1.3-3.1,2.3c-0.8,1-1.2,1.9-1.4,2.9c-0.2,0.9-0.4,1.8-0.4,2.7c0,0.9,0,1.6,0.1,2
						c0.1,0.3,0.1,0.6,0.2,0.8C107.5,41.9,107.7,42.1,107.7,42.5z M99.2,43.4c-0.6-1.8-0.9-3.7-0.8-5.7c0-2.2,0.7-4.6,1.8-7.3
						c1.3-3.1,5.2-5.7,11.9-6.4c6.6-0.7,11.3,0.3,14.1,2.9c2.5,2.3,4.1,4.5,5.1,6.5c1,1.9,1.5,3.8,1.8,5.7c0.5,3.5,0.4,6.6,0.1,9
						c-0.7,4-2.2,7.1-5.1,8.9c-2.2,1.3-4.9,2.1-8.1,2.5c-3.3,0.4-6.2,0.3-8.8-0.5c-3.4-1-6-3.5-8.3-7.1
						C101.4,49.6,100.3,46.9,99.2,43.4z"/>
				</g>
				<g>
					<path class="st3" d="M4.3,86.8c-1.4-1.7-2.9-3.4-4.3-5c2.5-2.8,5-5.6,7.6-8.2l0,0c0.2-0.2,0.4-0.4,0.6-0.6
						c1.4-1.5,2.9-2.9,4.4-4.3c4.8-4.4,9.9-8.4,15.1-12.2c1.1,2,2.1,3.9,3.2,5.9c-3.2,2.4-6.3,4.9-9.3,7.5c2,2,4,4.1,6,6.1
						c4.2,5.2,8.3,10.6,12.3,15.9c-2.6,2.2-5.2,4.4-7.7,6.7c-4.7-6.1-9.4-12.1-14.3-18.1c-1.5-1-3-2.1-4.5-3.1
						C10.3,80.3,7.3,83.5,4.3,86.8z"/>
					<path class="st3" d="M46.6,70.8c2.7-2,5.6-3.9,8.4-5.7c-1.4-1.2-2.8-2.3-4.2-3.4c-2.9-2.5-5.9-4.9-9-7.3
						C43.3,59.9,44.9,65.4,46.6,70.8z M45.4,87.3c-2-4.5-4-9.1-6-13.6c-1.9-7.2-3.7-14.4-5.3-21.7c2.1-1.4,4.1-2.7,6.2-4
						c0,0,0,0,0,0c0.5-0.3,0.9-0.6,1.4-0.8c11.2,7.2,21.4,15.4,30.6,24.3c-2.2,1-4.5,2-6.7,3.1c-1.4-1.5-2.8-3.1-4.3-4.6
						c-0.5-0.5-1-0.9-1.5-1.4c-3.6,3-7.1,6.2-10.4,9.5c0.7,1.7,1.3,3.4,2,5.1C49.4,84.5,47.4,85.9,45.4,87.3z"/>
					<path class="st3" d="M62.8,54.9c-1.1-2-1.7-4-1.9-6.1c-0.2-2.1-0.1-4.5,0.5-7.1c0.5-2.4,2.2-4.5,5-6.3c1.6-1,3.6-2,6-2.8
						c1.8-0.7,3.8-1.3,5.9-1.8c1.3-0.3,2.7-0.5,4-0.4c1.3,0.1,2.4,0.4,3.4,0.7c0.9,0.4,1.9,0.8,2.7,1.4c0.8,0.6,1.5,1.2,2.1,1.7
						c0.5,0.6,1,1.1,1.5,1.7c0.3,0.5,0.8,0.9,0.9,1.2c0.1,0.2,0.2,0.3,0.3,0.5c-2.5,1.1-5,2.2-7.5,3.3c-0.1-0.2-0.1-0.4-0.4-0.6
						c-0.1-0.3-0.5-0.6-1.2-1.1c-0.6-0.5-1.3-0.9-2-1.2c-0.7-0.3-1.8-0.3-3.1-0.2c-0.7,0.1-1.6,0.2-2.4,0.5
						c-0.7,0.2-1.2,0.5-1.9,0.9c-1.1,0.6-2.1,1.3-2.8,2.1c-0.7,0.8-1.3,1.5-1.6,2.3c-0.3,0.7-0.5,1.5-0.6,2.3
						c-0.1,0.8-0.1,1.5,0,2.2c0.2,0.6,0.2,1.3,0.4,1.8c0.1,0.6,0.3,0.9,0.3,1.3c0.1,0.1,0.1,0.3,0.2,0.4c0,0,0.1,0.2,0.2,0.3
						c0.1,0.3,0.3,0.6,0.5,1c0.3,0.4,0.6,0.9,0.8,1.4c0.2,0.5,0.7,1.1,1.2,1.6c0.4,0.5,0.9,1.1,1.5,1.6c0.5,0.5,1,1,1.8,1.3
						c0.6,0.4,1.3,0.7,2,1c0.7,0.2,1.4,0.4,2.2,0.4c0.8,0,1.7-0.2,2.5-0.5c1.3-0.5,2.5-1.1,3.5-1.8c1-0.7,1.8-1.5,2.2-2.1
						c0.4-0.7,0.9-1.4,1.2-2.1c0.3-0.7,0.4-1.1,0.5-1.6c0-0.2,0-0.4,0.1-0.6c2.4,0.2,4.8,0.4,7.1,0.7c0,0.1,0.1,0.3,0,0.6
						c0.1,0.3,0,0.8-0.2,1.5c-0.2,0.7-0.3,1.5-0.5,2.2C97,57.2,96.6,58,96,58.9c-0.6,1-1.4,1.9-2.2,2.7c-0.9,0.9-2.1,1.7-3.7,2.5
						c-1.4,0.8-3.1,1.5-4.9,2.2c-0.1,0-0.2,0.1-0.2,0.1C75.9,69.4,68.9,65.9,62.8,54.9z"/>
					<path class="st3" d="M105.3,41.5c0,0.1,0.1,0.3,0.1,0.4c0.1,0.4,0.2,0.7,0.5,1.3c0.3,0.7,0.7,1.4,1,2.1
						c0.4,0.8,0.8,1.6,1.4,2.4c0.6,0.8,1.3,1.4,2,2.1c0.7,0.7,1.6,1.1,2.6,1.4c1,0.3,2.1,0.5,3.2,0.3c0.1,0,0.2,0,0.3,0
						c0,0,0.1,0,0.1,0c0,0,0.1,0,0.1,0c0.1,0,0.2,0,0.3,0c1.1-0.2,2.1-0.6,2.9-1.1c0.8-0.6,1.5-1.2,1.9-2c0.4-0.8,0.8-1.6,1-2.5
						c0.2-0.9,0.4-1.8,0.3-2.6c0-0.9,0-1.6,0-2.3c0-0.7-0.1-1.2-0.2-1.7c0-0.2-0.1-0.4-0.1-0.7c0-0.2-0.1-0.5-0.2-0.9
						c-0.1-0.4-0.3-1-0.8-1.9c-0.5-0.9-0.9-1.7-1.6-2.5c-0.6-0.8-1.5-1.5-2.6-2.2c-1.2-0.7-2.4-1.2-4-1.3c-0.6-0.1-1.2,0-1.7,0.1
						c-0.7,0.2-1.5,0.4-2.2,0.6c-1.3,0.6-2.3,1.3-3,2.4c-0.7,1-1.2,1.9-1.4,2.9c-0.2,0.9-0.4,1.8-0.4,2.7c0,0.9,0,1.6,0.1,2
						c0.1,0.3,0.2,0.6,0.2,0.8C105.1,40.9,105.2,41.2,105.3,41.5z M96.8,42.5c-0.6-1.8-0.9-3.7-0.9-5.7c0-2.2,0.7-4.6,1.8-7.4
						c1.3-3.1,5.3-5.5,11.9-6.6c6.6-0.9,11.4,0.1,14.2,2.7c2.5,2.3,4.2,4.4,5.2,6.5c1,1.9,1.6,3.8,1.9,5.7c0.5,3.5,0.5,6.6,0.2,9
						c-0.6,4.1-2.3,7-5.1,8.9c-2.2,1.2-5,2.1-8.1,2.6c-3.3,0.3-6.1,0.2-8.8-0.3c-3.4-1.1-6.1-3.4-8.4-7C99.1,48.7,97.9,46,96.8,42.5
						z"/>
				</g>
			</g>
			<g>
				<path class="st1" d="M169,83c-23-8.7-39.7-9.2-48-9.4c0-2,0-3.9,0.1-5.9c0.1-12.7,8-22.7,25.7-26c10.8-2.8,16.9-5,17.8-8.6
					c0.1-0.4,0.2-0.7,0.3-1.1c0.9-3.8-2.2-7.1-9.5-9c-0.1,0-0.3,0-0.4,0c-6.6-1.2-10.8,0.4-12.5,4.6c-0.1,0.7-0.3,1.1-0.6,1.4
					c0.1,0.6,0.1,1.2,0.2,1.8c0,0.3,0,0.6-0.1,0.9c-4.7-0.6-9.5-1-14.3-1.3c-0.4-2.3-0.6-5-0.4-8.2c0.1-1,0.1-2,0.2-3
					c0.4-6.9,6.3-11.5,18.2-12.1c3.8-0.3,8.6,0,14.5,1.2c21.3,4.6,29.2,15,25,26.5c-3.1,8.9-13.9,11.8-31.7,13.1
					c-9.6,2.6-14.2,6.3-14.6,9.9c0.2,0.4,0.3,0.8,0.3,1c10.4,1.1,16.4,2.7,18.2,3.1c0.2-0.2,0.3-0.3,0.5-0.5
					c0.6-2.8,1.2-5.6,1.8-8.3c9.2,2.1,15.3,4.3,18.7,5.5c0,0.1,0,0.2,0,0.3c-3.8,9.7-6.6,17.3-8.4,23.1
					C169.6,82.2,169.3,82.6,169,83z"/>
			</g>
			<g>
				<path class="st4" d="M171.2,78.9c-24.5-9.3-42.4-9.7-51.3-9.9c0-2,0.1-4,0.1-6c0.1-12.9,8.5-23.3,27.3-26.6
					c11.5-2.7,18.1-5.1,19-8.7c0.1-0.4,0.2-0.8,0.3-1.2c0.9-3.9-2.4-7.2-10.3-9.3c-0.2,0-0.3,0-0.5,0c-7.1-1.3-11.5,0.5-13.3,4.6
					c-0.1,0.7-0.3,1.1-0.6,1.4c0.1,0.6,0.1,1.2,0.2,1.8c0,0.3,0,0.6-0.1,0.9c-5-0.6-10.1-1-15.1-1.2c-0.4-2.4-0.6-5.1-0.5-8.4
					c0.1-1,0.1-2,0.2-3c0.3-7.1,6.7-11.7,19.3-12.3c4-0.3,9.1,0.1,15.5,1.4c22.6,4.8,31,15.9,26.7,27.5
					c-3.2,9.1-14.8,11.6-33.8,12.8c-10.2,2.5-15.1,6.3-15.5,10c0.3,0.4,0.3,0.8,0.3,1c11,1.2,17.5,2.8,19.5,3.2
					c0.2-0.2,0.3-0.3,0.5-0.5c0.7-2.8,1.3-5.6,2-8.4c9.8,2.2,16.3,4.6,20,6c0,0.1,0,0.2,0,0.3c-4,9.8-6.9,17.5-8.9,23.3
					C172,78,171.6,78.5,171.2,78.9z"/>
			</g>
			<g>
				<g>
					<path class="st1" d="M178.9,46.6c0-0.5,0.1-1.1,0.1-1.5c0.1-1.4,0.4-2.8,0.6-4.1c0.4-1.7,1-3.1,1.6-4.2c0.7-1.1,1.5-2.1,2.3-3
						c0.8-0.9,1.8-1.5,2.7-2c0.9-0.4,1.9-0.9,2.8-1.1c0.9-0.3,1.9-0.5,2.6-0.5c0.9,0,1.5,0,2.3,0c0.6,0,1.2,0.1,1.5,0.1
						c0.2,0,0.4,0.1,0.6,0.1c1.8,0.4,3.4,0.8,5,1.4c1.9,0.7,3.5,1.4,4.9,2.2c1,0.6,1.9,1.4,2.8,2.5c0.9,1.1,1.6,2.3,1.9,3.4
						c0.5,1.1,0.9,2.2,1.3,3.3c0.4,1.1,0.5,1.9,0.6,2.6c0.1,0.3,0.1,0.7,0.2,1c-2.5-0.2-5-0.4-7.5-0.5c0-0.1,0-0.2-0.1-0.3
						c0-0.1-0.1-0.4-0.3-0.9c-0.2-0.5-0.3-0.8-0.5-1.3c-0.2-0.4-0.4-0.9-0.9-1.6c-0.3-0.5-0.8-1.1-1.3-1.6c-0.5-0.5-1-1-1.8-1.5
						c-0.7-0.4-1.5-0.8-2.5-1.2c-1.3-0.4-2.3-0.6-3.3-0.6c-1,0-1.8,0.1-2.4,0.4c-0.6,0.3-1.1,0.7-1.6,1.1c-0.5,0.4-0.8,0.8-0.9,1.3
						c-0.2,0.3-0.4,0.7-0.4,1.1c-0.4,1.1-0.8,2.8-1.1,5.3c-0.1,0.7-0.3,1.3-0.4,1.9c-0.2,1.6-0.3,3-0.3,4.2c0.3,1.9,0.8,3.5,1.8,4.9
						c1,1.3,2.7,2.6,5,3.6c0.4,0.1,0.7,0.4,1,0.5c0.6,0.2,1.3,0.4,1.9,0.5c0.9,0.2,1.6,0.1,2.3,0c0.6-0.2,1.2-0.4,1.7-0.7
						c0.5-0.3,1-0.6,1.2-1.1c0.2-0.4,0.6-0.8,0.8-1.2c0.2-0.3,0.3-0.7,0.5-0.9c0-0.1,0.1-0.2,0.1-0.4c-1.9-0.9-3.7-1.9-5.6-2.7
						c0.5-1.6,1.1-3.1,1.6-4.7c4.4,1.8,8.7,3.8,13,5.9c-0.9,2.3-1.7,4.6-2.6,6.9c-0.5,1.4-1.3,2.6-2.4,3.5c-1,0.9-1.9,1.5-3,1.8
						c-1,0.3-2.2,0.5-3.3,0.5c-1.1,0-2.3,0-3.3-0.3c-1-0.2-2-0.5-2.8-0.7c-0.9-0.2-1.5-0.5-2-0.6c-0.2-0.1-0.5-0.2-0.7-0.3
						c-0.2-0.1-0.5-0.2-0.9-0.3c-0.4-0.1-1-0.4-2-1c-0.9-0.5-2-1.1-2.8-1.6c-0.9-0.6-1.8-1.5-3-2.6c-1.1-1.1-2-2.4-2.8-3.7
						c-0.8-1.3-1.3-2.9-1.8-4.9C179,51,178.8,48.8,178.9,46.6z"/>
					<path class="st1" d="M224.7,61.7c0,0.1-0.1,0.3-0.1,0.4c-0.1,0.4-0.2,0.7-0.3,1.3c-0.1,0.8-0.2,1.6-0.4,2.4
						c-0.2,0.9-0.2,1.8-0.1,2.9c0.1,1,0.3,2,0.5,3.1c0.2,1,0.7,2,1.3,2.9c0.7,1,1.5,1.8,2.6,2.5c0.1,0.1,0.2,0.1,0.2,0.2
						c0,0,0.1,0.1,0.1,0.1c0,0,0.1,0.1,0.1,0.1c0.1,0.1,0.2,0.1,0.2,0.2c1.1,0.6,2.1,1.1,3.1,1.2c1,0.1,1.8,0,2.7-0.3
						c0.8-0.4,1.6-0.7,2.3-1.3c0.7-0.5,1.3-1.1,1.8-1.8c0.5-0.7,0.9-1.3,1.3-1.8c0.4-0.5,0.6-1.1,0.8-1.5c0.1-0.2,0.2-0.4,0.3-0.6
						c0.1-0.2,0.2-0.4,0.3-0.8c0.2-0.4,0.3-1.1,0.4-2.1c0.1-1.1,0.2-2,0-3.2c-0.1-1-0.4-2.2-1-3.6c-0.6-1.4-1.4-2.7-2.6-3.9
						c-0.5-0.5-1-0.9-1.5-1.2c-0.6-0.3-1.1-0.5-1.7-0.8c-1.5-0.5-2.7-0.5-3.9-0.3c-1.2,0.2-2.1,0.6-2.8,1.3
						c-0.7,0.6-1.3,1.2-1.9,1.9c-0.5,0.7-0.9,1.2-1,1.7c-0.1,0.3-0.2,0.5-0.3,0.8C225,61,224.9,61.3,224.7,61.7z M216.8,56.5
						c0.5-1.9,1.3-3.6,2.5-5.1c1.2-1.7,3.2-3.2,5.7-4.6c2.8-1.6,7.5-0.8,13.7,2.9c6.1,3.9,9.6,8.2,10.5,12.2
						c0.8,3.6,1.1,6.5,0.8,8.9c-0.2,2.2-0.8,4.1-1.6,5.9c-1.5,3.2-3.2,5.6-4.9,7.3c-2.8,2.8-5.9,3.9-9.3,3.4c-2.6-0.6-5.4-2-8.4-3.8
						c-2.9-2-5.4-4.2-7.4-6.5c-2.2-3.2-3.3-7-3.2-11.4C215.4,63.1,215.9,59.9,216.8,56.5z"/>
				</g>
				<g>
					<path class="st5" d="M176.3,45c0-0.5,0.1-1.1,0.1-1.5c0.1-1.4,0.3-2.8,0.6-4.1c0.4-1.7,0.9-3.1,1.6-4.2c0.7-1.1,1.5-2.1,2.3-3
						c0.8-0.9,1.7-1.5,2.7-2c0.9-0.5,1.9-0.9,2.8-1.2c0.9-0.3,1.9-0.5,2.6-0.6c0.9,0,1.5-0.1,2.3,0c0.6,0,1.2,0.1,1.5,0
						c0.2,0,0.4,0.1,0.6,0.1c1.8,0.3,3.4,0.8,5.1,1.3c1.9,0.6,3.5,1.3,4.9,2.1c1,0.6,1.9,1.4,2.8,2.5c0.9,1.1,1.6,2.3,2,3.3
						c0.5,1.1,0.9,2.2,1.3,3.3c0.4,1.1,0.5,1.9,0.7,2.5c0.1,0.3,0.2,0.7,0.2,1c-2.5-0.2-5.1-0.3-7.6-0.4c0-0.1,0-0.2-0.1-0.3
						c0-0.1-0.1-0.4-0.3-0.9c-0.2-0.5-0.3-0.8-0.5-1.3c-0.2-0.4-0.4-0.9-0.9-1.6c-0.4-0.5-0.9-1.1-1.4-1.6c-0.5-0.5-1-1-1.9-1.5
						c-0.7-0.4-1.5-0.8-2.5-1.1c-1.3-0.4-2.3-0.5-3.4-0.6c-1,0-1.8,0.2-2.4,0.5c-0.6,0.3-1.1,0.7-1.6,1.1c-0.5,0.5-0.8,0.9-0.9,1.3
						c-0.2,0.3-0.4,0.7-0.4,1.1c-0.4,1.1-0.6,2.9-1.1,5.3c-0.1,0.7-0.3,1.3-0.4,1.9c-0.2,1.6-0.4,3-0.3,4.2c0.2,1.8,0.9,3.5,1.9,4.8
						c1,1.3,2.7,2.5,5.1,3.5c0.4,0.1,0.7,0.4,1,0.4c0.6,0.2,1.3,0.4,1.9,0.5c0.9,0.1,1.6,0.1,2.3,0c0.6-0.2,1.2-0.5,1.7-0.8
						c0.5-0.3,1-0.6,1.2-1.2c0.2-0.4,0.6-0.8,0.8-1.2c0.2-0.3,0.3-0.7,0.5-0.9c0-0.1,0.1-0.3,0.1-0.4c-1.9-0.9-3.8-1.8-5.7-2.6
						c0.5-1.6,1-3.1,1.6-4.7c4.4,1.7,8.8,3.6,13.2,5.7c-0.8,2.3-1.7,4.7-2.5,7c-0.5,1.4-1.3,2.6-2.3,3.5c-0.9,0.9-1.9,1.5-3,1.9
						c-1,0.3-2.2,0.5-3.3,0.6c-1.1,0.1-2.3,0-3.3-0.2c-1-0.2-2-0.5-2.8-0.6c-0.9-0.2-1.5-0.4-2-0.6c-0.2-0.1-0.5-0.2-0.7-0.3
						c-0.2-0.1-0.5-0.2-0.9-0.3c-0.4-0.1-1-0.4-2.1-1c-1-0.5-2-1.1-2.9-1.6c-1-0.6-1.9-1.5-3-2.6c-1.2-1.1-2.1-2.3-2.8-3.6
						c-0.8-1.3-1.4-2.9-1.9-4.9C176.5,49.4,176.3,47.2,176.3,45z"/>
					<path class="st5" d="M222.5,59.3c0,0.1-0.1,0.3-0.1,0.4c-0.1,0.4-0.2,0.7-0.3,1.4c-0.1,0.7-0.2,1.6-0.3,2.4
						c-0.1,0.9-0.2,1.9-0.1,2.9c0.1,1,0.3,2,0.6,3c0.2,1,0.8,2,1.3,2.9c0.7,1,1.5,1.8,2.6,2.5c0.1,0,0.2,0.1,0.2,0.2
						c0,0,0.1,0.1,0.1,0.1c0,0,0.1,0.1,0.1,0.1c0.1,0.1,0.2,0.1,0.2,0.2c1.1,0.6,2.1,1,3.1,1.1c1,0.1,1.8,0,2.7-0.3
						c0.8-0.4,1.5-0.8,2.2-1.3c0.7-0.5,1.3-1.2,1.7-1.9c0.5-0.7,0.9-1.3,1.3-1.9c0.4-0.5,0.6-1.1,0.8-1.5c0.1-0.2,0.2-0.4,0.3-0.6
						c0.1-0.2,0.2-0.4,0.3-0.8c0.1-0.4,0.3-1.1,0.4-2.1c0.1-1.1,0.2-2,0-3.2c-0.1-1-0.4-2.2-1.1-3.6c-0.6-1.4-1.5-2.6-2.7-3.8
						c-0.5-0.5-1-0.8-1.5-1.2c-0.6-0.3-1.1-0.5-1.7-0.8c-1.5-0.4-2.7-0.5-3.9-0.2c-1.2,0.2-2.1,0.7-2.8,1.4
						c-0.7,0.6-1.3,1.2-1.8,1.9c-0.5,0.7-0.9,1.3-1,1.7c-0.1,0.3-0.2,0.6-0.3,0.8C222.7,58.7,222.6,59,222.5,59.3z M214.5,54.3
						c0.5-1.9,1.2-3.6,2.4-5.1c1.2-1.7,3.1-3.2,5.6-4.7c2.8-1.6,7.5-1.2,13.7,2.7c6.2,3.9,9.7,8,10.7,12c0.9,3.6,1.2,6.5,1,8.9
						c-0.1,2.2-0.7,4.2-1.5,5.9c-1.5,3.2-3.1,5.7-4.7,7.4c-2.8,2.8-5.8,4.2-9.3,3.6c-2.6-0.5-5.5-1.8-8.5-3.7
						c-3-1.9-5.6-4.1-7.5-6.4c-2.5-3.1-3.4-6.9-3.4-11.4C213.1,60.9,213.5,57.7,214.5,54.3z"/>
				</g>
				<g>
					<path class="st6" d="M173.6,43.4c0-0.5,0.1-1.1,0.1-1.5c0.1-1.4,0.3-2.8,0.5-4.1c0.4-1.7,0.9-3.1,1.5-4.3
						c0.6-1.1,1.4-2.1,2.2-3c0.8-0.9,1.7-1.6,2.6-2c0.9-0.5,1.9-0.9,2.8-1.2c0.9-0.4,1.9-0.5,2.6-0.6c0.9-0.1,1.5-0.1,2.3-0.1
						c0.6,0,1.2,0,1.5,0c0.2,0,0.4,0,0.6,0.1c1.8,0.3,3.5,0.7,5.1,1.2c1.9,0.6,3.5,1.2,5,2c1,0.5,2,1.4,2.9,2.4
						c0.9,1,1.6,2.2,2.1,3.3c0.6,1.1,1,2.2,1.4,3.3c0.4,1.1,0.6,1.9,0.7,2.5c0.1,0.3,0.2,0.7,0.2,1c-2.5-0.2-5.1-0.2-7.6-0.3
						c0-0.1,0-0.2-0.1-0.3c0-0.1-0.1-0.4-0.3-0.9c-0.2-0.5-0.3-0.8-0.5-1.3c-0.2-0.4-0.5-0.9-0.9-1.5c-0.4-0.5-0.9-1.1-1.4-1.6
						c-0.5-0.5-1.1-1-1.9-1.4c-0.7-0.4-1.5-0.8-2.6-1.1c-1.3-0.4-2.3-0.5-3.4-0.5c-1,0-1.8,0.2-2.4,0.5c-0.6,0.3-1.1,0.7-1.6,1.2
						c-0.5,0.5-0.8,0.9-0.9,1.4c-0.2,0.3-0.4,0.7-0.4,1.1c-0.4,1.1-0.7,2.9-1,5.4c-0.1,0.7-0.3,1.3-0.3,1.9c-0.2,1.6-0.2,3-0.2,4.2
						c0.3,1.9,0.9,3.5,2,4.8c1,1.3,2.8,2.5,5.2,3.5c0.4,0.1,0.8,0.3,1,0.4c0.6,0.2,1.3,0.3,2,0.5c0.9,0.1,1.6,0.1,2.3-0.1
						c0.6-0.2,1.2-0.5,1.7-0.8c0.5-0.3,1-0.7,1.2-1.2c0.2-0.4,0.6-0.8,0.8-1.2c0.2-0.3,0.3-0.7,0.5-0.9c0-0.1,0.1-0.3,0.1-0.4
						c-1.9-0.9-3.8-1.7-5.7-2.6c0.5-1.6,1-3.1,1.5-4.7c4.5,1.6,8.9,3.5,13.3,5.5c-0.8,2.3-1.6,4.7-2.4,7c-0.5,1.4-1.2,2.7-2.3,3.6
						c-0.9,0.9-1.9,1.6-3,1.9c-1,0.3-2.2,0.5-3.3,0.6c-1.1,0.1-2.3,0-3.3-0.1c-1-0.2-2-0.4-2.8-0.6c-0.9-0.2-1.5-0.4-2-0.6
						c-0.2-0.1-0.5-0.2-0.7-0.2c-0.2-0.1-0.5-0.2-0.9-0.3c-0.4-0.1-1-0.4-2.1-1c-1-0.5-2.1-1-2.9-1.6c-1-0.6-1.9-1.4-3.1-2.5
						c-1.2-1.1-2.1-2.3-2.9-3.6c-0.8-1.3-1.4-2.9-2-4.9C173.9,47.9,173.6,45.7,173.6,43.4z"/>
					<path class="st6" d="M220.1,57c0,0.1-0.1,0.3-0.1,0.4c-0.1,0.4-0.2,0.7-0.3,1.4c-0.1,0.8-0.2,1.6-0.3,2.4
						c-0.1,0.9-0.1,1.9,0,2.9c0.1,1,0.4,2,0.6,3c0.3,1,0.8,2,1.4,2.8c0.7,0.9,1.6,1.8,2.7,2.4c0.1,0,0.2,0.1,0.2,0.1
						c0,0,0.1,0,0.1,0.1c0,0,0.1,0,0.1,0.1c0.1,0,0.2,0.1,0.2,0.1c1.1,0.6,2.2,1,3.2,1.1c1,0.1,1.8-0.1,2.7-0.4
						c0.8-0.4,1.5-0.8,2.2-1.3c0.7-0.6,1.3-1.2,1.7-1.9c0.4-0.7,0.9-1.3,1.2-1.9c0.4-0.5,0.6-1.1,0.8-1.5c0.1-0.2,0.2-0.4,0.2-0.6
						c0.1-0.2,0.2-0.4,0.3-0.8c0.1-0.4,0.3-1.1,0.3-2.1c0.1-1.1,0.1-2-0.1-3.2c-0.1-1-0.5-2.2-1.1-3.6c-0.6-1.4-1.5-2.6-2.7-3.8
						c-0.5-0.5-1-0.8-1.6-1.1c-0.6-0.3-1.1-0.5-1.7-0.8c-1.5-0.4-2.7-0.5-3.9-0.1c-1.2,0.2-2.1,0.7-2.8,1.4
						c-0.6,0.6-1.3,1.2-1.8,1.9c-0.5,0.7-0.8,1.3-1,1.7c-0.1,0.3-0.2,0.6-0.2,0.8C220.3,56.4,220.3,56.7,220.1,57z M212,52.1
						c0.5-1.9,1.2-3.6,2.3-5.2c1.2-1.7,3.1-3.3,5.5-4.8c2.8-1.7,7.5-1,13.8,2.5c6.3,3.7,9.9,7.8,10.9,11.8c1,3.6,1.3,6.5,1.1,8.9
						c-0.1,2.2-0.6,4.2-1.4,5.9c-1.4,3.2-3.1,5.7-4.6,7.5c-2.7,2.9-5.8,4.1-9.2,3.8c-2.6-0.5-5.5-1.8-8.5-3.5c-3-1.9-5.5-4-7.6-6.3
						c-2.4-3.2-3.5-6.9-3.6-11.3C210.8,58.7,211.2,55.6,212,52.1z"/>
				</g>
			</g>
		</g>
	</g>
	<g>
		<path class="st7" d="M179.8,74.9c6.3-4.7,13.9-7.1,21.9-5.9c4.5,0.6,8.8,2.4,12.5,5c3.6,2.6,6.6,6.1,8.7,10.1
			c3.6,7,3.9,14.9,1.4,22.2c2.1,1.4,3.9,3.2,5.3,5.3c2,2.8,3.3,6,4,9.4c0.7,3.6,0.6,7.3-0.2,10.9c-1.6,6.8-5.7,12.7-11,17.2
			c0.1,2.9-0.1,5.8-0.7,8.6c-6.7,30.3-65.1,36-90.1,36.8c-16.6,0.5-33.9-0.4-50.3-3.4c-12.2-2.2-27.3-6.2-37.3-13.7
			c-0.6-0.5-1.3-1-1.9-1.4c-8.9-1.3-15.7-7.9-18.3-16.4c-3.8-10.3-4.9-21.3-2.5-32.1c2.1-9.6,6.8-18.2,13.5-25.3
			c6.9-7.4,15.6-12.9,25.1-16.4c0.8-0.3,1.6-0.6,2.5-0.9c1.6-1.8,3.4-3.2,5.6-4.2c4.4-2,7.4-2.1,12.1-1.4c2.4,0.4,3.7,0.4,6-0.6
			c2.2-1,3.3-2.5,4.5-4.4c1.7-2.6,3.1-4.5,5.9-6.1c3.2-1.9,5.9-1.9,9.4-1.6c0.4,0.1,1.6,0.2,2.1,0.1c0.4-0.4,0.9-1.6,1.1-2
			c1.6-3.4,3.1-5.9,6.5-7.7c3.3-1.7,6.4-2,9.8-0.6c1.1,0.4,2,1,3,1.6c0.3,0.2,0.9,0.5,1.3,0.7c1.3,0.1,2.4-0.1,3.6-0.4
			c2.8-0.6,4.9-1,7.7-0.6c3.1,0.4,5.7,1.2,8.3,2.8c2.7,1.7,5,4.1,6.9,6.6c0,0,0.1,0,0.1,0c4.1-1.1,8.4-1,12.5,0.4
			C173.1,68.9,176.8,71.6,179.8,74.9L179.8,74.9z"/>
		<path class="st8" d="M211.5,155.5c1.4-6.6-0.3-14.9-4.4-23.2c-4.3-8.5-11.1-16.8-19.6-23.1c-6.2-4.6-13.4-8.1-21.1-9.8
			c-31.6-7-57.4,20.5-79,43.5c-12,12.8-22.9,24.3-33.5,28.8c16.3,9.3,47,13.5,77.2,12.5C148.8,183.6,206.3,179,211.5,155.5
			L211.5,155.5z"/>
		<path class="st9" d="M81.8,137.5c7.1-7.5,14.5-15.5,22.6-22.7c-1.3-7.4-7.6-12.3-15-11.8c-11.2,0.8-11.5,10.8-9.8,19.7
			c-5.3-5.3-14.6-11.6-24.7-6.3c-2.1,1.2-3.8,3.1-4.8,5.8c-1.9,5.6-1,12.2,0.9,17.2c-5.6-1-12.6-0.5-16.2,5.3
			c-2.2,3.6-2.3,8.3-1,12.2c1.4,4.2,4.6,7.8,9.1,8.7C53.5,167.7,66.6,153.7,81.8,137.5L81.8,137.5z"/>
		<path class="st10" d="M81.8,137.5c7.1-7.5,14.5-15.5,22.6-22.7c-3.7-5.7-10.4-6.1-14.4-4.1c-4.9,2.5-8.3,9.1-8.4,17.2
			c-14.7-10.4-31.1,0.7-23.9,18.9C42,139.6,32.8,160.6,43,165.6C53.5,167.7,66.6,153.7,81.8,137.5L81.8,137.5z"/>
		<path class="st11" d="M110.9,109.3c11.6-9.4,24.3-16.6,38.5-18.4c-1.4-0.9-3.3-1.1-4.9-1.2c-2.9-0.3-5.5-0.5-7.7-2.4
			c-1.7-1.4-2.8-3-3.9-4.5c-1.4-2-2.8-3.9-4.9-3.7c-2.2,0.2-3.2,1.7-4.3,3.3c-2,3-4.1,6.1-9.8,7.5c-4.9,1.2-9.9,7.1-7.2,12.2
			C108.3,104.2,109.8,106.5,110.9,109.3L110.9,109.3z"/>
		<path class="st9" d="M168.1,91.8c8.8,1.9,16.9,5.9,24,11.2c9.5,7.1,17.1,16.3,21.9,25.8c1.7,3.4,3,6.8,4,10.1
			c2.8-3,4.5-6.3,5.2-9.4c0.5-2.3,0.5-4.5,0.2-6.5c-0.4-2-1.2-3.8-2.2-5.3c-3-4.2-6.5-5.2-11.3-5.5c5.1-5.6,8.3-14.5,3.8-23.3
			c-1.3-2.5-3.2-4.7-5.6-6.4c-2.3-1.6-5-2.8-7.9-3.2c-10.1-1.4-17.8,4.6-22,11.8c-1.8-5.3-6.5-11.7-12.7-13.8
			c-2.2-0.8-4.5-0.7-6.5-0.2c-3.1,0.9-6,3.2-7.3,6.1c2.8,1,5.3,3,6.8,7.2C161.8,90.8,164.8,91.1,168.1,91.8L168.1,91.8z"/>
		<path class="st10" d="M168.1,91.8c2.6,0.5,5.1,1.3,7.5,2.2c-3.9-13.5-17.1-12.5-19.7-8.2c1.1,1.1,2,2.6,2.7,4.6
			C161.8,90.8,164.8,91.1,168.1,91.8L168.1,91.8z M177,94.5c5.4,2.1,10.5,5,15.1,8.4c4.3,3.2,8.3,6.9,11.7,10.8
			C217.5,93.3,195.9,75.1,177,94.5L177,94.5z M205.3,115.6c3.5,4.2,6.4,8.7,8.7,13.2c0.9,1.7,1.6,3.4,2.3,5.1
			C219.6,125,218.2,115.9,205.3,115.6L205.3,115.6z"/>
		<path class="st12" d="M209.8,159.8c-8,12.4-42.8,19.5-72.4,16.8c0-0.2,0.1-0.4,0.1-0.5c0-1.7-1.3-3-3-3c-1.6,0-2.9,1.3-3,2.8
			c-1.5-0.2-3-0.4-4.5-0.7c0-0.1,0-0.1,0-0.2c0-3.2-2.6-5.7-5.7-5.7c-2.3,0-4.2,1.3-5.2,3.3c-4.9-1.6-9.4-3.6-13-6
			c1.9-1.5,3.1-3.9,3.1-6.5c0-4.6-3.7-8.3-8.3-8.3c-1.8,0-3.5,0.6-4.8,1.6c-1.4-6,0-13.3,5.2-22c-3.7,3.8-7.4,7.7-10.9,11.4
			c-12,12.8-22.9,24.3-33.5,28.8c16.3,9.3,47,13.5,77.2,12.5C147.7,183.6,198.9,179.5,209.8,159.8L209.8,159.8z M111.1,145.7
			c1.1,0,2.1,0.9,2.1,2c0,1.1-0.9,2-2.1,2s-2-0.9-2-2C109.1,146.6,110,145.7,111.1,145.7L111.1,145.7z M100.6,142.5
			c1.5,0,2.7,1.2,2.7,2.7s-1.2,2.7-2.7,2.7s-2.7-1.2-2.7-2.7S99.1,142.5,100.6,142.5L100.6,142.5z M114,158.2c2.2,0,4,1.8,4,4
			s-1.8,4-4,4c-2.2,0-4-1.8-4-4C110,160,111.8,158.2,114,158.2L114,158.2z M129.9,166.1c1.1,0,2,0.9,2,2c0,1.1-0.9,2-2,2s-2-0.9-2-2
			C127.9,166.9,128.8,166.1,129.9,166.1L129.9,166.1z"/>
		<path class="st13" d="M119.9,112.2c12.2-7.7,24.3-11.1,35.7-10.9c-0.5,0.5-0.8,1.1-0.9,1.7c-0.2,2.2,2.7,4.2,6.5,4.5
			c3.7,0.3,6.9-1.2,7.1-3.4c0.1-0.4,0-0.7-0.1-1c16.1,4.3,30.4,16.3,41,33.8c-0.6-1.5-1.3-3.1-2.1-4.6c-4.3-8.5-11.1-16.8-19.6-23.1
			c-6.2-4.6-13.4-8.1-21.1-9.8C149.3,95.6,133.8,101.9,119.9,112.2L119.9,112.2z"/>
		<path class="st14" d="M132.6,138.9c3,0,5.4-3.7,5.4-8.2c0-4.5-2.4-8.2-5.4-8.2s-5.4,3.7-5.4,8.2
			C127.2,135.3,129.6,138.9,132.6,138.9L132.6,138.9z"/>
		<path class="st14" d="M172.5,134.7c2.5,0,4.5-3.1,4.5-6.9s-2-6.9-4.5-6.9c-2.5,0-4.5,3.1-4.5,6.9C168,131.7,170,134.7,172.5,134.7
			L172.5,134.7z"/>
		<path class="st1" d="M137.4,150c0.1,0.1,23.4,15.2,35.7-4.1C172.2,163.3,149.2,168.8,137.4,150L137.4,150z"/>
		<path class="st15" d="M51,139.4c-4.8-25.3,14.7-27.4,28.6-16.7c-5.3-5.3-14.6-11.6-24.7-6.3c-2.1,1.2-3.8,3.1-4.8,5.8
			C48.2,127.8,49.2,134.4,51,139.4L51,139.4z"/>
		<path class="st15" d="M33.6,156.4c-0.8-9.7,4.8-17.8,17.4-16.9c-5.6-1-12.6-0.5-16.2,5.3C32.7,148.1,32.5,152.6,33.6,156.4
			L33.6,156.4z"/>
		<path class="st15" d="M79.6,122.7c-1.2-17.2,9.2-21.6,20.6-15.9c-2.8-2.6-6.6-4-10.7-3.7C78.1,103.9,77.9,113.9,79.6,122.7
			L79.6,122.7z"/>
		<path class="st16" d="M117.8,97.8c-2.7,0.7-6.1-2.6-8.5-1.3c-1.5,0.8-2.6,2.4-2.8,5.7c1.8,1.9,3.4,4.3,4.4,7.1
			c9.8-7.9,20.3-14.2,31.8-17.2c-2.7-0.2-5.3-0.1-6.9-0.5c-3.9-1-4.7-4.9-8.3-4.3C123.3,88.1,124.2,96.1,117.8,97.8L117.8,97.8z"/>
		<path class="st15" d="M179.7,88.8c10.9-10.1,22.5-8.6,28.5-2.2c5.1,5.5,6.5,15,1.6,25.6c5.1-5.6,8.3-14.5,3.8-23.3
			c-1.3-2.5-3.2-4.7-5.6-6.4c-2.3-1.6-5-2.8-7.9-3.2C191.2,78,184.1,82.7,179.7,88.8L179.7,88.8z"/>
		<path class="st15" d="M221.1,117.7c-3-4.2-6.5-5.2-11.3-5.5c12.2,1.8,14,14.6,7.2,23.7c0.4,1,0.7,2.1,1,3.1c2.8-3,4.5-6.3,5.2-9.4
			c0.5-2.3,0.5-4.5,0.2-6.5C223,121,222.2,119.2,221.1,117.7L221.1,117.7z"/>
		<path class="st15" d="M154,84.2c4.5-8.6,16.7-5.7,22.1,2.2c-2.4-3.9-6.1-7.6-10.6-9.1c-2.2-0.8-4.5-0.7-6.5-0.2
			c-3.1,0.9-6,3.2-7.3,6.1C152.5,83.5,153.3,83.8,154,84.2L154,84.2z"/>
		<path class="st7" d="M134.3,128.9c0.8,0,1.4-0.7,1.4-1.5c0-0.8-0.6-1.5-1.4-1.5c-0.8,0-1.4,0.7-1.4,1.5
			C132.9,128.3,133.5,128.9,134.3,128.9L134.3,128.9z"/>
		<path class="st7" d="M173.6,126.8c0.7,0,1.4-0.7,1.4-1.5c0-0.8-0.6-1.5-1.4-1.5c-0.8,0-1.4,0.7-1.4,1.5
			C172.2,126.1,172.9,126.8,173.6,126.8L173.6,126.8z"/>
		<path class="st8" d="M41.7,132c-0.5-4.9-0.1-8.9,1.1-12.3c1.6-4.7,4.6-8,8.3-10.1c1.9-1.1,4-1.9,6.1-2.4c0.1-1.9,0.5-5.8,1.7-9.9
			c-6.5,3-12.1,7.1-16.6,11.9c-5.5,5.8-9.3,12.8-11,20.5c-0.6,2.7-1,5.4-1,8.1C33.1,135,36.8,132.8,41.7,132L41.7,132z"/>
		<path class="st12" d="M41.7,132c-0.5-4.9-0.1-8.9,1.1-12.3c1.6-4.7,4.6-8,8.3-10.1c1.9-1.1,4-1.9,6.1-2.4c0.1-1.1,0.2-2.9,0.6-5
			c-4.7,2.7-8.8,6-12.3,9.7c-5.5,5.8-9.3,12.8-11,20.5c-0.2,0.7-0.3,1.5-0.4,2.3C36.2,133.5,38.8,132.5,41.7,132L41.7,132z"/>
		<path class="st17" d="M72.1,90c-5.5,2.5-6.9,12.8-7.2,16.8c2.4,0.3,4.8,1,7.1,2.1c1.2-5.1,4.4-8.9,8.5-11.1
			c2.6-1.4,5.5-2.2,8.4-2.4c3.2-0.2,6.4,0.3,9.4,1.4c1-7.2,6.7-13.5,13.6-14.3c2.9-0.7,4.1-2.6,5.3-4.3c2.1-3.2,4.1-6.1,9.9-6.7
			c6.5-0.7,9.2,3,12,6.8c0.9,1.2,1.8,2.4,2.7,3.2c0.3,0.2,1.2,0.4,2.4,0.5c0.9-2.9,2.6-5.5,4.8-7.6c-1.8-2.7-3.4-4.2-4.9-5.2
			c-1.4-0.9-2.8-1.2-4.2-1.4c-1.6-0.2-2.9,0.1-4.2,0.4c-1.9,0.4-3.8,0.9-7,0.6c-2.2-0.2-3.7-1.1-5.3-2c-1.1-0.6-2.1-1.2-3-0.8
			c-0.8,0.4-1.4,1.7-2,3c-1.1,2.4-2.3,4.8-5.2,6.5c-3,1.7-5.5,1.4-8,1.2c-1.3-0.1-2.7-0.2-3.5,0.2c-0.9,0.5-1.6,1.7-2.5,2.9
			c-1.8,2.8-3.9,5.8-8.9,8.1c-5.3,2.3-8.5,1.8-11.6,1.4C76.5,89.1,74.7,88.8,72.1,90L72.1,90z"/>
		<path class="st18" d="M67.4,107.3c1.6,0.4,3.1,0.9,4.6,1.6c1.2-5.1,4.4-8.9,8.5-11.1c2.6-1.4,5.5-2.2,8.4-2.4
			c3.2-0.2,6.4,0.3,9.4,1.4c1-7.2,6.7-13.5,13.6-14.3c2.9-0.7,4.1-2.6,5.3-4.3c2.1-3.2,4.1-6.1,9.9-6.7l0.1,0
			c-0.6-0.3-1.2-0.6-1.8-1c-1.1-0.6-2.1-1.2-3-0.8c-0.8,0.4-1.4,1.8-2,3c-1.1,2.4-2.3,4.8-5.2,6.5c-3,1.7-5.5,1.4-8,1.2
			c-1.3-0.1-2.7-0.2-3.5,0.2c-0.9,0.5-1.6,1.7-2.5,2.9c-1.8,2.8-3.9,5.8-8.9,8.1c-5.3,2.3-8.5,1.8-11.6,1.4
			c-1.9-0.3-3.7-0.5-6.4,0.6C69.9,95.6,68.1,102.5,67.4,107.3L67.4,107.3z M133.5,72.5c2.4,1.3,3.9,3.5,5.6,5.7
			c0.9,1.2,1.8,2.4,2.7,3.2c0.3,0.2,1.2,0.4,2.4,0.5c0.8-2.7,2.4-5.1,4.3-7.2c-0.8-0.9-1.6-1.5-2.4-1.9c-1.4-0.9-2.8-1.2-4.2-1.4
			c-1.6-0.2-2.9,0.1-4.2,0.4C136.4,72.1,135.1,72.4,133.5,72.5L133.5,72.5z"/>
		<path class="st19" d="M107.7,93.9c0.9-0.8,2.6-1.8,5.8-2.5c6.3-1.3,7.7-2.8,9.7-5.8c2-3,2.2-4.9,4.9-4.9c2.6,0,5.5,7.5,10.6,7.8
			c-0.7-0.3-1.4-0.7-2-1.3c-1.7-1.4-2.8-3-3.9-4.5c-1.4-2-2.8-3.9-4.9-3.7c-2.2,0.2-3.2,1.7-4.3,3.3c-2,3-4.1,6.1-9.8,7.5
			C111.5,90.5,109.3,92,107.7,93.9L107.7,93.9z"/>
		<path class="st1" d="M104.3,114.9c-1.3-7.4-7.6-12.3-15-11.8c-11.2,0.8-11.5,10.8-9.8,19.7c-5.3-5.3-14.6-11.6-24.7-6.3
			c-2.1,1.2-3.8,3.1-4.8,5.8c-1.9,5.6-1,12.2,0.9,17.2c-5.6-1-12.6-0.5-16.2,5.3c-2.2,3.6-2.3,8.3-1,12.2c1.4,4.2,4.6,7.8,9.1,8.7
			c10.6,2.1,23.7-11.9,38.9-28.1C88.9,130,96.4,122.1,104.3,114.9L104.3,114.9z M57.3,107.3c0.1-1.9,0.5-5.8,1.7-9.9
			c-6.5,3-12.1,7.1-16.6,11.9c-5.5,5.8-9.3,12.8-11,20.5c-0.6,2.7-1,5.4-1,8.1c2.7-2.9,6.5-5.1,11.4-5.8c-0.5-4.9-0.1-8.9,1.1-12.3
			c1.6-4.7,4.6-8,8.3-10.1C53.1,108.6,55.1,107.8,57.3,107.3L57.3,107.3z M63.8,87.2c1.4-1.7,3.1-3.1,5.1-4
			c4.6-2.1,7.6-1.7,10.6-1.2c2,0.3,4.2,0.6,7.5-0.8c3-1.3,4.4-3.4,5.7-5.3c1.4-2,2.6-3.9,5-5.3c2.9-1.7,5.4-1.4,7.9-1.2
			c1.3,0.1,2.7,0.2,3.6-0.3c0.9-0.5,1.5-1.8,2.1-3.2c1.1-2.5,2.3-4.9,5.4-6.5c4.6-2.4,7.4-0.7,10.3,0.9c0.8,0.5,1.7,1,2.2,1
			c1.8,0.2,3.2-0.2,4.5-0.5c2-0.5,3.9-0.9,6.8-0.5c2.2,0.3,4.6,0.8,7.3,2.5c2.4,1.4,4.8,3.8,7.3,7.5c0.6-0.2,1.2-0.4,1.8-0.6
			c3.4-1,7.2-1,11,0.3c3.9,1.3,7.9,4.1,11.5,8.6c7-6,14.8-8,21.9-7c4.1,0.6,8,2.2,11.3,4.5c3.3,2.4,6,5.5,7.9,9.2
			c3.2,6.3,3.9,14.1,0.5,22.1c2.5,1.4,4.7,3.3,6.4,5.7c1.7,2.4,3,5.3,3.6,8.4c0.6,3.1,0.6,6.4-0.2,9.7c-1.3,5.7-4.8,11.5-11.1,16.6
			c0.2,3.2,0.1,6.3-0.6,9.2c-6.4,28.9-65.7,34.1-87.6,34.8c-34.3,1.1-69.6-4.5-85.9-16.6c-0.8-0.6-1.6-1.2-2.3-1.9
			c-8.3-0.8-14.5-6.9-16.9-14.7c-3.9-10.7-4.5-21.2-2.4-30.7c2-9.1,6.5-17.3,12.9-24.1c6.3-6.8,14.5-12.2,24.1-15.7
			C61.8,87.8,62.8,87.5,63.8,87.2L63.8,87.2z M148.8,74.3c-1.8-2.7-3.4-4.2-4.9-5.2c-1.4-0.9-2.8-1.2-4.2-1.4
			c-1.6-0.2-2.9,0.1-4.2,0.4c-1.9,0.4-3.8,0.9-7,0.6c-2.2-0.2-3.7-1.1-5.3-2c-1.1-0.6-2.1-1.2-3-0.8c-0.8,0.4-1.4,1.7-2,3
			c-1.1,2.4-2.3,4.8-5.2,6.5c-3,1.7-5.5,1.4-8,1.2c-1.3-0.1-2.7-0.2-3.5,0.2c-0.9,0.5-1.6,1.7-2.5,2.9c-1.8,2.8-3.9,5.8-8.9,8.1
			c-5.3,2.3-8.5,1.8-11.6,1.4c-1.9-0.3-3.7-0.5-6.4,0.6c-5.5,2.5-6.9,12.8-7.2,16.8c2.4,0.3,4.8,1,7.1,2.1c1.2-5.1,4.4-8.9,8.5-11.1
			c2.6-1.4,5.5-2.2,8.4-2.4c3.2-0.2,6.4,0.3,9.4,1.4c1-7.2,6.7-13.5,13.6-14.3c2.9-0.7,4.1-2.6,5.3-4.3c2.1-3.2,4.1-6.1,9.9-6.7
			c6.5-0.7,9.2,3,12,6.8c0.9,1.2,1.8,2.4,2.7,3.2c0.3,0.2,1.2,0.4,2.4,0.5C144.9,79,146.6,76.4,148.8,74.3L148.8,74.3z M218,138.9
			c2.8-3,4.5-6.3,5.2-9.4c0.5-2.3,0.5-4.5,0.2-6.5c-0.4-2-1.2-3.8-2.2-5.3c-3-4.2-6.5-5.2-11.3-5.5c5.1-5.6,8.3-14.5,3.8-23.3
			c-1.3-2.5-3.2-4.7-5.6-6.4c-2.3-1.6-5-2.8-7.9-3.2c-10.1-1.4-17.8,4.6-22,11.8c-1.8-5.3-6.5-11.7-12.7-13.8
			c-2.2-0.8-4.5-0.7-6.5-0.2c-3.1,0.9-6,3.2-7.3,6.1c2.8,1,5.3,3,6.8,7.2c3.2,0.5,6.3,0.7,9.5,1.4c8.8,1.9,16.9,5.9,24,11.2
			c9.5,7.1,17.1,16.3,21.9,25.8C215.7,132.1,217,135.6,218,138.9L218,138.9z M149.3,90.9c-1.4-0.9-3.3-1.1-4.9-1.2
			c-2.9-0.3-5.5-0.5-7.7-2.4c-1.7-1.4-2.8-3-3.9-4.5c-1.4-2-2.8-3.9-4.9-3.7c-2.2,0.2-3.2,1.7-4.3,3.3c-2,3-4.1,6.1-9.8,7.5
			c-4.9,1.2-9.9,7.1-7.2,12.2c1.8,1.9,3.4,4.3,4.4,7.1C122.5,100,135.2,92.7,149.3,90.9L149.3,90.9z M87.5,142.8
			c-12,12.8-22.9,24.3-33.5,28.8c16.3,9.3,47,13.5,77.2,12.5c17.6-0.5,75.1-5.2,80.3-28.7c1.4-6.6-0.3-14.9-4.4-23.2
			c-4.3-8.5-11.1-16.8-19.6-23.1c-6.2-4.6-13.4-8.1-21.1-9.8C134.8,92.4,109.1,119.8,87.5,142.8L87.5,142.8z"/>
	</g>
</g>
</svg>
