<svg id="exo0mZVPlHI1" xmlns="http://www.w3.org/2000/svg" xmlns:xlink="http://www.w3.org/1999/xlink" viewBox="0 0 828.3 538.4" shape-rendering="geometricPrecision" text-rendering="geometricPrecision"><g id="exo0mZVPlHI2" transform="matrix(.99 0 0 1 4.140899 0.000001)"><g transform="translate(.000001 0.000001)"><path d="M741.2,386.8c5.6-25.6-1.1-57.8-17.2-89.6-16.6-32.9-43-65.1-75.9-89.5-24.1-17.9-51.7-31.4-81.5-38-122.2-27-222,79.2-305.6,168.3-46.5,49.6-88.5,94.2-129.5,111.4c63.1,35.9,181.9,52.1,298.9,48.5c68.2-2.2,290.7-20.1,310.8-111.1v0Z" clip-rule="evenodd" fill="#f7af41" fill-rule="evenodd"/><path d="M239.2,317.5c27.3-29.1,56.3-59.9,87.3-87.7-4.9-28.8-29.4-47.6-58-45.6-43.5,3-44.4,41.8-37.9,76.1-20.4-20.7-56.6-45-95.5-24.5-8.1,4.6-14.8,12-18.5,22.6-7.4,21.5-3.7,47.2,3.4,66.5-21.5-3.8-48.6-2.1-62.7,20.6-8.5,13.8-8.9,32.2-3.8,47.3c5.6,16.3,17.9,30,35.4,33.5c40.7,7.9,91.5-46.2,150.3-108.8v0Z" clip-rule="evenodd" fill="#7ec54b" fill-rule="evenodd"/><path d="M239.2,317.5c27.3-29.1,56.3-59.9,87.3-87.7-14.4-22.1-40.2-23.6-55.9-15.7-19,9.6-32,35.3-32.5,66.5-56.9-40.3-120.2,2.6-92.5,73.2-60.6-28.5-96.1,52.9-56.8,72.3c40.8,8.1,91.6-46,150.4-108.6v0Z" clip-rule="evenodd" fill="#61a134" fill-rule="evenodd"/><path d="M351.6,208.3c45-36.2,94.2-64.4,149-71.3-5.6-3.5-12.6-4.1-19.1-4.7-11.1-1-21.4-2.1-29.9-9.2-6.4-5.5-10.9-11.6-15.2-17.6-5.6-7.7-10.9-15-19.1-14.2-8.6.9-12.5,6.7-16.7,12.9-7.7,11.5-15.8,23.7-38.1,29.2-19.1,4.7-38.5,27.4-27.9,47.3c7.1,7.6,13,16.8,17,27.6v0Z" clip-rule="evenodd" fill="#e63c45" fill-rule="evenodd"/><path d="M573,140.4c34.1,7.4,65.5,23,92.9,43.2c36.8,27.3,66.2,63.2,84.8,100c6.6,13,11.8,26.2,15.6,39.2c11-11.8,17.5-24.4,20.3-36.4c2.1-8.8,2.1-17.3.6-25.3-1.5-7.7-4.5-14.8-8.7-20.7-11.6-16.2-25.3-20.3-43.9-21.4c19.8-21.6,32.1-56.2,14.8-90.2-5-9.8-12.5-18.2-21.5-24.7-8.9-6.3-19.3-10.7-30.4-12.2-39.1-5.6-69,17.9-85,45.7-6.8-20.6-25-45.2-49.3-53.4-8.7-3-17.3-2.9-25-.8-11.9,3.3-23.1,12.2-28.1,23.7c10.9,3.9,20.6,11.5,26.3,27.8c12.4,1.8,24.1,2.7,36.6,5.5v0Z" clip-rule="evenodd" fill="#7ec54b" fill-rule="evenodd"/><path d="M573,140.4c9.9,2.1,19.7,5,29.1,8.5-15-52.1-66-48.5-76.4-31.9c4.2,4.4,7.9,10.2,10.6,17.9c12.5,1.8,24.2,2.7,36.7,5.5v0Zm34.4,10.5c20.9,8.3,40.6,19.5,58.5,32.7c16.8,12.4,32,26.6,45.4,41.9c53.1-79.1-30.5-149.7-103.9-74.6v0Zm109.8,81.6c13.4,16.3,24.7,33.6,33.5,51.1c3.3,6.6,6.2,13.2,8.9,19.7c12.8-34.5,7.5-69.5-42.4-70.8v0Z" clip-rule="evenodd" fill="#61a134" fill-rule="evenodd"/><path d="M386.4,219.5c47.2-29.8,93.9-43.1,138.2-42.2-1.9,1.9-3.1,4.1-3.3,6.6-.7,8.4,10.5,16.1,25.1,17.3c14.5,1.2,26.8-4.6,27.5-13c.2-1.4-.1-2.6-.5-4C635.9,200.9,691,247.1,732,315c-2.4-5.9-5-11.9-8-17.9-16.6-32.9-43-65.1-75.9-89.5-24.1-17.9-51.7-31.4-81.5-38-66.4-14.6-126.1,10-180.2,49.9v0Z" clip-rule="evenodd" fill="#ffe7c5" fill-rule="evenodd"/><path d="M119.9,324.7c-18.5-97.8,56.9-106,110.6-64.5-20.4-20.7-56.6-45-95.5-24.5-8.1,4.6-14.8,12-18.5,22.6-7.5,21.4-3.7,47.1,3.4,66.4v0Z" clip-rule="evenodd" fill="#a9f076" fill-rule="evenodd"/><path d="M230.5,260.2c-4.6-66.5,35.6-83.5,79.6-61.6-10.8-10.1-25.6-15.6-41.6-14.4-43.6,3-44.5,41.7-38,76v0Z" clip-rule="evenodd" fill="#a9f076" fill-rule="evenodd"/><path d="M378.6,163.6c-10.6,2.8-23.6-10.2-33-5-5.7,3.2-10,9.4-11,22.2c7.1,7.5,13,16.8,16.9,27.5c37.8-30.5,78.6-55.1,123.1-66.4-10.3-.7-20.4-.5-26.8-2.1-15-3.7-18.3-19-32.2-16.6-15.9,2.8-12.3,33.9-37,40.4v0Z" clip-rule="evenodd" fill="#c72e36" fill-rule="evenodd"/><path d="M618,129c42.3-39,87.2-33.3,110.2-8.7c19.7,21.1,25.3,57.9,6.3,98.9c19.8-21.6,32.1-56.2,14.8-90.2-5-9.8-12.5-18.2-21.5-24.7-8.9-6.3-19.3-10.7-30.4-12.2-34.9-5.2-62.5,13.1-79.4,36.9v0Z" clip-rule="evenodd" fill="#a9f076" fill-rule="evenodd"/><path d="M778.4,240.5c-11.6-16.2-25.3-20.3-43.9-21.4c47.4,6.8,54,56.7,27.9,91.7c1.4,4,2.7,8,3.8,12c11-11.8,17.5-24.4,20.3-36.4c2.1-8.8,2.1-17.3.6-25.3-1.4-7.6-4.5-14.7-8.7-20.6v0Z" clip-rule="evenodd" fill="#a9f076" fill-rule="evenodd"/><path d="M518.5,111.2c17.4-33.1,64.6-22,85.5,8.5-9.2-15.2-23.5-29.6-40.9-35.4-8.7-3-17.3-2.9-25-.8-11.9,3.3-23.1,12.2-28.1,23.7c2.9,1,5.7,2.4,8.5,4v0Z" clip-rule="evenodd" fill="#a9f076" fill-rule="evenodd"/><path d="M84.1,296.1c-2.1-18.8-.3-34.5,4.2-47.5c6.3-18.3,17.9-31,32.1-39c7.5-4.2,15.6-7.3,23.8-9.2.5-7.4,2-22.4,6.4-38.5-25,11.7-46.7,27.3-64.1,45.9-21.2,22.6-36,49.7-42.6,79.4-2.3,10.3-3.7,20.8-3.9,31.5c10.5-11.2,25.1-19.5,44.1-22.6v0Z" clip-rule="evenodd" fill="#f7af41" fill-rule="evenodd"/><path d="M84.1,296.1c-2.1-18.8-.3-34.5,4.2-47.5c6.3-18.3,17.9-31,32.1-39c7.5-4.2,15.6-7.3,23.8-9.2.3-4.3.9-11.1,2.2-19.2-18.1,10.4-34.2,23.1-47.6,37.4-21.2,22.6-36,49.7-42.6,79.4-.6,2.9-1.2,5.9-1.7,8.8c8.3-5.1,18.1-8.9,29.6-10.7v0Z" clip-rule="evenodd" fill="#cc8042" fill-rule="evenodd"/><path d="M201.4,133.5c-21.2,9.6-26.6,49.6-27.9,65.2c9.4,1,18.7,3.7,27.5,8c4.8-19.9,17.1-34.3,32.8-43.1c9.9-5.5,21.1-8.5,32.6-9.3c12.2-.9,24.7,1,36.2,5.3c3.7-27.7,26.1-52.3,52.6-55.3c11.1-2.7,15.9-10,20.4-16.8c8.2-12.3,15.9-23.8,38.5-26.1c25.2-2.6,35.6,11.5,46.3,26.3c3.3,4.6,6.8,9.3,10.3,12.3c1.1.9,4.7,1.5,9.1,2c3.4-11.2,10-21.3,18.5-29.4-7-10.3-13.3-16.4-19.1-20-5.6-3.5-11-4.7-16.2-5.3-6.3-.8-11.2.3-16.2,1.5-7.3,1.7-14.9,3.5-26.9,2.4-8.5-.9-14.5-4.3-20.5-7.8-4.2-2.4-8.3-4.8-11.7-3-3.2,1.7-5.6,6.7-7.9,11.8-4.4,9.2-8.8,18.5-20.3,25.1-11.5,6.5-21.2,5.6-30.9,4.7-5.1-.4-10.3-.9-13.4.9-3.4,2-6.3,6.4-9.6,11.3-7.1,10.7-15,22.6-34.6,31.3-20.5,9-32.9,7.1-45,5.3-7.3-.9-14.4-1.9-24.6,2.7v0Z" clip-rule="evenodd" fill="#ffc928" fill-rule="evenodd"/><path d="M183.3,200.4c6.1,1.4,12,3.5,17.8,6.3c4.8-19.9,17.1-34.3,32.8-43.1c9.9-5.5,21.1-8.5,32.6-9.3c12.2-.9,24.7,1,36.2,5.3c3.7-27.7,26.1-52.3,52.6-55.3c11.1-2.7,15.9-10,20.4-16.8c8.2-12.3,15.9-23.8,38.5-26.1l.3-.1c-2.4-1.1-4.5-2.4-6.8-3.7-4.2-2.4-8.3-4.8-11.7-3-3.2,1.7-5.6,6.8-7.9,11.8-4.4,9.2-8.8,18.5-20.3,25.1-11.5,6.5-21.2,5.6-30.9,4.7-5.1-.4-10.3-.9-13.4.9-3.4,2-6.3,6.4-9.6,11.3-7.1,10.7-15,22.6-34.6,31.3-20.5,9-32.9,7.1-45,5.3-7.4-1.1-14.5-2.1-24.7,2.5-16.7,7.8-23.5,34.4-26.3,52.9v0ZM439.1,65.8c9.1,5,15.2,13.4,21.5,22c3.3,4.6,6.8,9.3,10.3,12.3c1.1.9,4.7,1.5,9.1,2c3.2-10.4,9.1-19.9,16.8-27.7-3.2-3.3-6.2-5.7-9.1-7.5-5.6-3.5-11-4.7-16.2-5.3-6.3-.8-11.2.3-16.2,1.5s-10,2.4-16.2,2.7v0Z" clip-rule="evenodd" fill="#d3922c" fill-rule="evenodd"/><path d="M339.5,148.5c3.4-3.2,10-7,22.6-9.6c24.5-5,29.7-10.9,37.6-22.4c7.9-11.6,8.6-18.8,18.8-18.8c10.1,0,21.2,29.2,41,30.2-2.8-1.2-5.4-2.8-7.9-4.9-6.4-5.5-10.9-11.6-15.2-17.6-5.6-7.7-10.9-15-19.1-14.2-8.6.9-12.5,6.7-16.7,12.9-7.7,11.5-15.8,23.7-38.1,29.2-8.5,2.1-17.1,7.8-23,15.2v0Z" clip-rule="evenodd" fill="#fc6068" fill-rule="evenodd"/><path d="M326.4,229.8c-4.9-28.8-29.4-47.6-58-45.6-43.5,3-44.4,41.8-37.9,76.1-20.4-20.7-56.6-45-95.5-24.5-8.1,4.6-14.8,12-18.5,22.6-7.4,21.5-3.7,47.2,3.4,66.5-21.5-3.8-48.6-2.1-62.7,20.6-8.5,13.8-8.9,32.2-3.8,47.3c5.6,16.3,17.9,30,35.4,33.5c40.9,8.1,91.6-46,150.4-108.6c27.3-29.3,56.3-60.1,87.2-87.9v0ZM144.2,200.4c.5-7.4,2-22.4,6.4-38.5-25,11.7-46.7,27.3-64.1,45.9-21.2,22.6-36,49.7-42.6,79.4-2.3,10.3-3.7,20.8-3.9,31.5c10.4-11.3,25-19.6,44-22.6-2.1-18.8-.3-34.5,4.2-47.5c6.3-18.3,17.9-31,32.1-39c7.6-4.2,15.6-7.2,23.9-9.2v0Zm25.4-77.9c5.4-6.6,11.9-12,19.7-15.6c17.9-8.1,29.3-6.5,41-4.7c7.9,1.1,16.2,2.4,29-3.2c11.6-5,17.1-13.2,21.9-20.6c5.3-7.8,10-15,19.5-20.4c11.2-6.4,20.8-5.6,30.4-4.7c5.2.5,10.5.9,14.1-1c3.3-1.9,5.7-7.1,8.2-12.2c4.4-9.5,8.9-18.9,20.9-25.1c17.7-9.2,28.7-2.9,39.8,3.5c3.2,1.9,6.5,3.8,8.5,4c7.1.6,12.4-.6,17.6-1.9c7.6-1.8,15-3.5,26.3-2.1c8.7,1,17.9,3.2,28.2,9.5c9.1,5.6,18.5,14.6,28.3,29.1c2.3-.9,4.6-1.6,6.9-2.3c13.2-3.7,27.8-3.8,42.6,1.2c15.2,5.1,30.6,15.7,44.4,33.4c27-23.4,57.3-30.9,84.7-27c16,2.3,30.9,8.5,43.7,17.5c12.6,9.1,23.2,21.2,30.5,35.5c12.4,24.3,15,54.4,2.1,85.7c9.8,5.3,18.2,12.9,24.8,22.1c6.7,9.4,11.5,20.4,13.8,32.5c2.3,11.9,2.2,24.6-.9,37.7-5.1,22-18.6,44.6-43.1,64.2.9,12.5.3,24.5-2.2,35.7-24.6,111.9-254.4,132-339.2,134.6-132.9,4.1-269.5-17.4-332.6-64.2-3.2-2.3-6.2-4.7-8.9-7.2-32.3-3.2-56.2-26.7-65.5-57C8.9,358,6.5,317.6,14.8,280.8c7.9-35.1,25.2-66.9,49.9-93.3c24.4-26.2,56.2-47.2,93.1-60.9c3.9-1.5,7.8-2.9,11.8-4.1v0ZM498.5,72.7c-7-10.3-13.3-16.4-19.1-20-5.6-3.5-11-4.7-16.2-5.3-6.3-.8-11.2.3-16.2,1.5-7.3,1.7-14.9,3.5-26.9,2.4-8.5-.9-14.5-4.3-20.5-7.8-4.2-2.4-8.3-4.8-11.7-3-3.2,1.7-5.6,6.7-7.9,11.8-4.4,9.2-8.8,18.5-20.3,25.1-11.5,6.5-21.2,5.6-30.9,4.7-5.1-.4-10.3-.9-13.4.9-3.4,2-6.3,6.4-9.6,11.3-7.1,10.7-15,22.6-34.6,31.3-20.5,9-32.9,7.1-45,5.3-7.4-1.1-14.5-2.1-24.7,2.5-21.2,9.6-26.6,49.6-27.9,65.2c9.4,1,18.7,3.7,27.5,8c4.8-19.9,17.1-34.3,32.8-43.1c9.9-5.5,21.1-8.5,32.6-9.3c12.2-.9,24.7,1,36.2,5.3c3.7-27.7,26.1-52.3,52.6-55.3c11.1-2.7,15.9-10,20.4-16.8c8.2-12.3,15.9-23.8,38.5-26.1c25.2-2.6,35.6,11.5,46.3,26.3c3.3,4.6,6.8,9.3,10.3,12.3c1.1.9,4.7,1.5,9.1,2c3.5-11,10.1-21.1,18.6-29.2v0ZM766.2,322.9c11-11.8,17.5-24.4,20.3-36.4c2.1-8.8,2.1-17.3.6-25.3-1.5-7.7-4.5-14.8-8.7-20.7-11.6-16.2-25.3-20.3-43.9-21.4c19.8-21.6,32.1-56.2,14.8-90.2-5-9.8-12.5-18.2-21.5-24.7-8.9-6.3-19.3-10.7-30.4-12.2-39.1-5.6-69,17.9-85,45.7-6.8-20.6-25-45.2-49.3-53.4-8.7-3-17.3-2.9-25-.8-11.9,3.3-23.1,12.2-28.1,23.7c10.9,3.9,20.6,11.5,26.3,27.8c12.5,1.8,24.2,2.6,36.7,5.5c34.1,7.4,65.5,23,92.9,43.2c36.8,27.3,66.2,63.2,84.8,100c6.5,12.9,11.7,26.2,15.5,39.2v0ZM500.5,137c-5.6-3.5-12.6-4.1-19.1-4.7-11.1-1-21.4-2.1-29.9-9.2-6.4-5.5-10.9-11.6-15.2-17.6-5.6-7.7-10.9-15-19.1-14.2-8.6.9-12.5,6.7-16.7,12.9-7.7,11.5-15.8,23.7-38.1,29.2-19.1,4.7-38.5,27.4-27.9,47.3c7.1,7.5,13,16.8,16.9,27.5c45.1-36.2,94.3-64.3,149.1-71.2v0ZM261,338c-46.5,49.6-88.5,94.2-129.5,111.4c63.1,35.9,181.9,52.1,298.9,48.5c68.2-2.1,290.7-20.1,310.7-111.1c5.6-25.6-1.1-57.8-17.2-89.6-16.6-32.9-43-65.1-75.9-89.5-24.1-17.9-51.7-31.4-81.5-38C444.4,142.7,344.6,248.9,261,338v0Z" fill="#721146"/></g><path d="M734.7,403.8c-30.9,48-165.5,75.3-280.2,65.2.1-.7.2-1.4.2-2.1c0-6.4-5.1-11.5-11.5-11.5-6.2,0-11.3,4.9-11.6,11-5.8-.8-11.6-1.7-17.3-2.7c0-.3,0-.5,0-.7c0-12.2-9.9-22.1-22-22.1-8.8,0-16.4,5.2-20,12.6-19.1-6.1-36.3-13.8-50.4-23.2c7.4-5.9,12.1-15,12.1-25.2c0-17.8-14.4-32.2-32.1-32.2-7,0-13.4,2.2-18.7,6-5.5-23.3-.1-51.4,20.2-85-14.4,14.7-28.5,29.7-42.1,44.2-46.5,49.6-88.5,94.2-129.5,111.4c63.1,35.9,181.9,52.1,298.9,48.5c63.5-2.1,261.8-18,304-94.2v0ZM352.6,349c4.4,0,8,3.6,8,7.9c0,4.4-3.6,7.9-8,7.9s-7.9-3.5-7.9-7.9c-.1-4.3,3.5-7.9,7.9-7.9v0Zm-40.9-12.3c5.8,0,10.5,4.7,10.5,10.5s-4.7,10.5-10.5,10.5-10.5-4.7-10.5-10.5s4.7-10.5,10.5-10.5v0Zm52.2,60.8c8.5,0,15.6,7,15.6,15.6s-7,15.6-15.6,15.6-15.6-6.9-15.6-15.6c0-8.6,6.9-15.6,15.6-15.6v0Zm61.4,30.4c4.2,0,7.6,3.4,7.6,7.6s-3.4,7.6-7.6,7.6-7.6-3.4-7.6-7.6s3.4-7.6,7.6-7.6v0Z" clip-rule="evenodd" fill="#cc8042" fill-rule="evenodd"/><path d="M52.6,390.3c-3.1-37.6,18.5-68.7,67.3-65.5-21.5-3.8-48.6-2.1-62.7,20.6-8.2,13-8.9,30.3-4.6,44.9v0Z" clip-rule="evenodd" fill="#a9f076" fill-rule="evenodd"/></g><path id="exo0mZVPlHI25" d="M454.3,365.8c.2.3,90.5,58.9,138.2-15.8-3.6,67.2-92.4,88.4-138.2,15.8v0Z" fill="#721146"/><g id="exo0mZVPlHI26" transform="matrix(.13 0 0 0.13 378.972005 253.431003)"><path d="M435.6,322.9c11.5,0,20.9-14.3,20.9-31.6c0-17.4-9.4-31.6-20.9-31.6s-20.9,14.2-20.9,31.6c.1,17.4,9.4,31.6,20.9,31.6v0Z" clip-rule="evenodd" fill="#721146" fill-rule="evenodd"/><path d="M442.4,284.2c3,0,5.4-2.6,5.4-5.8s-2.4-5.8-5.4-5.8-5.4,2.6-5.4,5.8s2.4,5.8,5.4,5.8v0Z" clip-rule="evenodd" fill="#fff" fill-rule="evenodd"/></g><g id="exo0mZVPlHI29" transform="matrix(.130681 0 0 0.130681 513.072058 242.331585)"><path d="M590.2,306.6c9.7,0,17.6-12,17.6-26.7s-7.9-26.7-17.6-26.7-17.6,12-17.6,26.7c0,14.8,7.9,26.7,17.6,26.7v0Z" transform="translate(0-1.139762)" clip-rule="evenodd" fill="#721146" fill-rule="evenodd"/><path d="M594.6,275.9c2.9,0,5.4-2.6,5.4-5.8s-2.5-5.8-5.4-5.8c-3,0-5.5,2.6-5.5,5.8s2.5,5.8,5.5,5.8v0Z" clip-rule="evenodd" fill="#fff" fill-rule="evenodd"/></g>
<script><![CDATA[
!function(t,n){"object"==typeof exports&&"undefined"!=typeof module?module.exports=n():"function"==typeof define&&define.amd?define(n):((t="undefined"!=typeof globalThis?globalThis:t||self).__SVGATOR_PLAYER__=t.__SVGATOR_PLAYER__||{},t.__SVGATOR_PLAYER__["5c7f360c"]=n())}(this,(function(){"use strict";function t(t,n){var e=Object.keys(t);if(Object.getOwnPropertySymbols){var r=Object.getOwnPropertySymbols(t);n&&(r=r.filter((function(n){return Object.getOwnPropertyDescriptor(t,n).enumerable}))),e.push.apply(e,r)}return e}function n(n){for(var e=1;e<arguments.length;e++){var r=null!=arguments[e]?arguments[e]:{};e%2?t(Object(r),!0).forEach((function(t){o(n,t,r[t])})):Object.getOwnPropertyDescriptors?Object.defineProperties(n,Object.getOwnPropertyDescriptors(r)):t(Object(r)).forEach((function(t){Object.defineProperty(n,t,Object.getOwnPropertyDescriptor(r,t))}))}return n}function e(t){return(e="function"==typeof Symbol&&"symbol"==typeof Symbol.iterator?function(t){return typeof t}:function(t){return t&&"function"==typeof Symbol&&t.constructor===Symbol&&t!==Symbol.prototype?"symbol":typeof t})(t)}function r(t,n){if(!(t instanceof n))throw new TypeError("Cannot call a class as a function")}function i(t,n){for(var e=0;e<n.length;e++){var r=n[e];r.enumerable=r.enumerable||!1,r.configurable=!0,"value"in r&&(r.writable=!0),Object.defineProperty(t,r.key,r)}}function u(t,n,e){return n&&i(t.prototype,n),e&&i(t,e),t}function o(t,n,e){return n in t?Object.defineProperty(t,n,{value:e,enumerable:!0,configurable:!0,writable:!0}):t[n]=e,t}function a(t){return(a=Object.setPrototypeOf?Object.getPrototypeOf:function(t){return t.__proto__||Object.getPrototypeOf(t)})(t)}function l(t,n){return(l=Object.setPrototypeOf||function(t,n){return t.__proto__=n,t})(t,n)}function s(){if("undefined"==typeof Reflect||!Reflect.construct)return!1;if(Reflect.construct.sham)return!1;if("function"==typeof Proxy)return!0;try{return Boolean.prototype.valueOf.call(Reflect.construct(Boolean,[],(function(){}))),!0}catch(t){return!1}}function f(t,n,e){return(f=s()?Reflect.construct:function(t,n,e){var r=[null];r.push.apply(r,n);var i=new(Function.bind.apply(t,r));return e&&l(i,e.prototype),i}).apply(null,arguments)}function c(t,n){if(n&&("object"==typeof n||"function"==typeof n))return n;if(void 0!==n)throw new TypeError("Derived constructors may only return object or undefined");return function(t){if(void 0===t)throw new ReferenceError("this hasn't been initialised - super() hasn't been called");return t}(t)}function h(t,n,e){return(h="undefined"!=typeof Reflect&&Reflect.get?Reflect.get:function(t,n,e){var r=function(t,n){for(;!Object.prototype.hasOwnProperty.call(t,n)&&null!==(t=a(t)););return t}(t,n);if(r){var i=Object.getOwnPropertyDescriptor(r,n);return i.get?i.get.call(e):i.value}})(t,n,e||t)}function v(t){return function(t){if(Array.isArray(t))return y(t)}(t)||function(t){if("undefined"!=typeof Symbol&&null!=t[Symbol.iterator]||null!=t["@@iterator"])return Array.from(t)}(t)||function(t,n){if(!t)return;if("string"==typeof t)return y(t,n);var e=Object.prototype.toString.call(t).slice(8,-1);"Object"===e&&t.constructor&&(e=t.constructor.name);if("Map"===e||"Set"===e)return Array.from(t);if("Arguments"===e||/^(?:Ui|I)nt(?:8|16|32)(?:Clamped)?Array$/.test(e))return y(t,n)}(t)||function(){throw new TypeError("Invalid attempt to spread non-iterable instance.\nIn order to be iterable, non-array objects must have a [Symbol.iterator]() method.")}()}function y(t,n){(null==n||n>t.length)&&(n=t.length);for(var e=0,r=new Array(n);e<n;e++)r[e]=t[e];return r}Number.isInteger||(Number.isInteger=function(t){return"number"==typeof t&&isFinite(t)&&Math.floor(t)===t}),Number.EPSILON||(Number.EPSILON=2220446049250313e-31);var g=d(Math.pow(10,-6));function d(t){var n=arguments.length>1&&void 0!==arguments[1]?arguments[1]:6;if(Number.isInteger(t))return t;var e=Math.pow(10,n);return Math.round((+t+Number.EPSILON)*e)/e}function p(t,n){var e=arguments.length>2&&void 0!==arguments[2]?arguments[2]:g;return Math.abs(t-n)<e}var m=Math.PI/180;function b(t){return t}function w(t,n,e){var r=1-e;return 3*e*r*(t*r+n*e)+e*e*e}function x(){var t=arguments.length>0&&void 0!==arguments[0]?arguments[0]:0,n=arguments.length>1&&void 0!==arguments[1]?arguments[1]:0,e=arguments.length>2&&void 0!==arguments[2]?arguments[2]:1,r=arguments.length>3&&void 0!==arguments[3]?arguments[3]:1;return t<0||t>1||e<0||e>1?null:p(t,n)&&p(e,r)?b:function(i){if(i<=0)return t>0?i*n/t:0===n&&e>0?i*r/e:0;if(i>=1)return e<1?1+(i-1)*(r-1)/(e-1):1===e&&t<1?1+(i-1)*(n-1)/(t-1):1;for(var u,o=0,a=1;o<a;){var l=w(t,e,u=(o+a)/2);if(p(i,l))break;l<i?o=u:a=u}return w(n,r,u)}}function A(){return 1}function k(t){return 1===t?1:0}function _(){var t=arguments.length>0&&void 0!==arguments[0]?arguments[0]:1,n=arguments.length>1&&void 0!==arguments[1]?arguments[1]:0;if(1===t){if(0===n)return k;if(1===n)return A}var e=1/t;return function(t){return t>=1?1:(t+=n*e)-t%e}}var S=Math.sin,O=Math.cos,j=Math.acos,M=Math.asin,P=Math.tan,E=Math.atan2,I=Math.PI/180,R=180/Math.PI,F=Math.sqrt,N=function(){function t(){var n=arguments.length>0&&void 0!==arguments[0]?arguments[0]:1,e=arguments.length>1&&void 0!==arguments[1]?arguments[1]:0,i=arguments.length>2&&void 0!==arguments[2]?arguments[2]:0,u=arguments.length>3&&void 0!==arguments[3]?arguments[3]:1,o=arguments.length>4&&void 0!==arguments[4]?arguments[4]:0,a=arguments.length>5&&void 0!==arguments[5]?arguments[5]:0;r(this,t),this.m=[n,e,i,u,o,a],this.i=null,this.w=null,this.s=null}return u(t,[{key:"determinant",get:function(){var t=this.m;return t[0]*t[3]-t[1]*t[2]}},{key:"isIdentity",get:function(){if(null===this.i){var t=this.m;this.i=1===t[0]&&0===t[1]&&0===t[2]&&1===t[3]&&0===t[4]&&0===t[5]}return this.i}},{key:"point",value:function(t,n){var e=this.m;return{x:e[0]*t+e[2]*n+e[4],y:e[1]*t+e[3]*n+e[5]}}},{key:"translateSelf",value:function(){var t=arguments.length>0&&void 0!==arguments[0]?arguments[0]:0,n=arguments.length>1&&void 0!==arguments[1]?arguments[1]:0;if(!t&&!n)return this;var e=this.m;return e[4]+=e[0]*t+e[2]*n,e[5]+=e[1]*t+e[3]*n,this.w=this.s=this.i=null,this}},{key:"rotateSelf",value:function(){var t=arguments.length>0&&void 0!==arguments[0]?arguments[0]:0;if(t%=360){var n=S(t*=I),e=O(t),r=this.m,i=r[0],u=r[1];r[0]=i*e+r[2]*n,r[1]=u*e+r[3]*n,r[2]=r[2]*e-i*n,r[3]=r[3]*e-u*n,this.w=this.s=this.i=null}return this}},{key:"scaleSelf",value:function(){var t=arguments.length>0&&void 0!==arguments[0]?arguments[0]:1,n=arguments.length>1&&void 0!==arguments[1]?arguments[1]:1;if(1!==t||1!==n){var e=this.m;e[0]*=t,e[1]*=t,e[2]*=n,e[3]*=n,this.w=this.s=this.i=null}return this}},{key:"skewSelf",value:function(t,n){if(n%=360,(t%=360)||n){var e=this.m,r=e[0],i=e[1],u=e[2],o=e[3];t&&(t=P(t*I),e[2]+=r*t,e[3]+=i*t),n&&(n=P(n*I),e[0]+=u*n,e[1]+=o*n),this.w=this.s=this.i=null}return this}},{key:"resetSelf",value:function(){var t=arguments.length>0&&void 0!==arguments[0]?arguments[0]:1,n=arguments.length>1&&void 0!==arguments[1]?arguments[1]:0,e=arguments.length>2&&void 0!==arguments[2]?arguments[2]:0,r=arguments.length>3&&void 0!==arguments[3]?arguments[3]:1,i=arguments.length>4&&void 0!==arguments[4]?arguments[4]:0,u=arguments.length>5&&void 0!==arguments[5]?arguments[5]:0,o=this.m;return o[0]=t,o[1]=n,o[2]=e,o[3]=r,o[4]=i,o[5]=u,this.w=this.s=this.i=null,this}},{key:"recomposeSelf",value:function(){var t=arguments.length>0&&void 0!==arguments[0]?arguments[0]:null,n=arguments.length>1&&void 0!==arguments[1]?arguments[1]:null,e=arguments.length>2&&void 0!==arguments[2]?arguments[2]:null,r=arguments.length>3&&void 0!==arguments[3]?arguments[3]:null,i=arguments.length>4&&void 0!==arguments[4]?arguments[4]:null;return this.isIdentity||this.resetSelf(),t&&(t.x||t.y)&&this.translateSelf(t.x,t.y),n&&this.rotateSelf(n),e&&(e.x&&this.skewSelf(e.x,0),e.y&&this.skewSelf(0,e.y)),!r||1===r.x&&1===r.y||this.scaleSelf(r.x,r.y),i&&(i.x||i.y)&&this.translateSelf(i.x,i.y),this}},{key:"decompose",value:function(){var t=arguments.length>0&&void 0!==arguments[0]?arguments[0]:0,n=arguments.length>1&&void 0!==arguments[1]?arguments[1]:0,e=this.m,r=e[0]*e[0]+e[1]*e[1],i=[[e[0],e[1]],[e[2],e[3]]],u=F(r);if(0===u)return{origin:{x:d(e[4]),y:d(e[5])},translate:{x:d(t),y:d(n)},scale:{x:0,y:0},skew:{x:0,y:0},rotate:0};i[0][0]/=u,i[0][1]/=u;var o=e[0]*e[3]-e[1]*e[2]<0;o&&(u=-u);var a=i[0][0]*i[1][0]+i[0][1]*i[1][1];i[1][0]-=i[0][0]*a,i[1][1]-=i[0][1]*a;var l=F(i[1][0]*i[1][0]+i[1][1]*i[1][1]);if(0===l)return{origin:{x:d(e[4]),y:d(e[5])},translate:{x:d(t),y:d(n)},scale:{x:d(u),y:0},skew:{x:0,y:0},rotate:0};i[1][0]/=l,i[1][1]/=l,a/=l;var s=0;return i[1][1]<0?(s=j(i[1][1])*R,i[0][1]<0&&(s=360-s)):s=M(i[0][1])*R,o&&(s=-s),a=E(a,F(i[0][0]*i[0][0]+i[0][1]*i[0][1]))*R,o&&(a=-a),{origin:{x:d(e[4]),y:d(e[5])},translate:{x:d(t),y:d(n)},scale:{x:d(u),y:d(l)},skew:{x:d(a),y:0},rotate:d(s)}}},{key:"clone",value:function(){var t=this.m;return new this.constructor(t[0],t[1],t[2],t[3],t[4],t[5])}},{key:"toString",value:function(){var t=arguments.length>0&&void 0!==arguments[0]?arguments[0]:" ";if(null===this.s){var n=this.m.map((function(t){return d(t)}));1===n[0]&&0===n[1]&&0===n[2]&&1===n[3]?this.s="translate("+n[4]+t+n[5]+")":this.s="matrix("+n.join(t)+")"}return this.s}}],[{key:"create",value:function(t){return t?Array.isArray(t)?f(this,v(t)):t instanceof this?t.clone():(new this).recomposeSelf(t.origin,t.rotate,t.skew,t.scale,t.translate):new this}}]),t}();function T(t,n,e){return t>=.5?e:n}function q(t,n,e){return 0===t||n===e?n:t*(e-n)+n}function B(t,n,e){var r=q(t,n,e);return r<=0?0:r}function L(t,n,e){var r=q(t,n,e);return r<=0?0:r>=1?1:r}function C(t,n,e){return 0===t?n:1===t?e:{x:q(t,n.x,e.x),y:q(t,n.y,e.y)}}function D(t,n,e){var r=function(t,n,e){return Math.round(q(t,n,e))}(t,n,e);return r<=0?0:r>=255?255:r}function z(t,n,e){return 0===t?n:1===t?e:{r:D(t,n.r,e.r),g:D(t,n.g,e.g),b:D(t,n.b,e.b),a:q(t,null==n.a?1:n.a,null==e.a?1:e.a)}}function V(t,n){for(var e=[],r=0;r<t;r++)e.push(n);return e}function G(t,n){if(--n<=0)return t;var e=(t=Object.assign([],t)).length;do{for(var r=0;r<e;r++)t.push(t[r])}while(--n>0);return t}var Y,$=function(){function t(n){r(this,t),this.list=n,this.length=n.length}return u(t,[{key:"setAttribute",value:function(t,n){for(var e=this.list,r=0;r<this.length;r++)e[r].setAttribute(t,n)}},{key:"removeAttribute",value:function(t){for(var n=this.list,e=0;e<this.length;e++)n[e].removeAttribute(t)}},{key:"style",value:function(t,n){for(var e=this.list,r=0;r<this.length;r++)e[r].style[t]=n}}]),t}(),U=/-./g,Q=function(t,n){return n.toUpperCase()};function H(t){return"function"==typeof t?t:T}function J(t){return t?"function"==typeof t?t:Array.isArray(t)?function(t){var n=arguments.length>1&&void 0!==arguments[1]?arguments[1]:b;if(!Array.isArray(t))return n;switch(t.length){case 1:return _(t[0])||n;case 2:return _(t[0],t[1])||n;case 4:return x(t[0],t[1],t[2],t[3])||n}return n}(t,null):function(t,n){var e=arguments.length>2&&void 0!==arguments[2]?arguments[2]:b;switch(t){case"linear":return b;case"steps":return _(n.steps||1,n.jump||0)||e;case"bezier":case"cubic-bezier":return x(n.x1||0,n.y1||0,n.x2||0,n.y2||0)||e}return e}(t.type,t.value,null):null}function Z(t,n,e){var r=arguments.length>3&&void 0!==arguments[3]&&arguments[3],i=n.length-1;if(t<=n[0].t)return r?[0,0,n[0].v]:n[0].v;if(t>=n[i].t)return r?[i,1,n[i].v]:n[i].v;var u,o=n[0],a=null;for(u=1;u<=i;u++){if(!(t>n[u].t)){a=n[u];break}o=n[u]}return null==a?r?[i,1,n[i].v]:n[i].v:o.t===a.t?r?[u,1,a.v]:a.v:(t=(t-o.t)/(a.t-o.t),o.e&&(t=o.e(t)),r?[u,t,e(t,o.v,a.v)]:e(t,o.v,a.v))}function K(t,n){var e=arguments.length>2&&void 0!==arguments[2]?arguments[2]:null;return t&&t.length?"function"!=typeof n?null:("function"!=typeof e&&(e=null),function(r){var i=Z(r,t,n);return null!=i&&e&&(i=e(i)),i}):null}function W(t,n){return t.t-n.t}function X(t,n,r,i,u){var o,a="@"===r[0],l="#"===r[0],s=Y[r],f=T;switch(a?(o=r.substr(1),r=o.replace(U,Q)):l&&(r=r.substr(1)),e(s)){case"function":if(f=s(i,u,Z,J,r,a,n,t),l)return f;break;case"string":f=K(i,H(s));break;case"object":if((f=K(i,H(s.i),s.f))&&"function"==typeof s.u)return s.u(n,f,r,a,t)}return f?function(t,n,e){if(arguments.length>3&&void 0!==arguments[3]&&arguments[3])return t instanceof $?function(r){return t.style(n,e(r))}:function(r){return t.style[n]=e(r)};if(Array.isArray(n)){var r=n.length;return function(i){var u=e(i);if(null==u)for(var o=0;o<r;o++)t[o].removeAttribute(n);else for(var a=0;a<r;a++)t[a].setAttribute(n,u)}}return function(r){var i=e(r);null==i?t.removeAttribute(n):t.setAttribute(n,i)}}(n,r,f,a):null}function tt(t,n,r,i){if(!i||"object"!==e(i))return null;var u=null,o=null;return Array.isArray(i)?o=function(t){if(!t||!t.length)return null;for(var n=0;n<t.length;n++)t[n].e&&(t[n].e=J(t[n].e));return t.sort(W)}(i):(o=i.keys,u=i.data||null),o?X(t,n,r,o,u):null}function nt(t,n,e){if(!e)return null;var r=[];for(var i in e)if(e.hasOwnProperty(i)){var u=tt(t,n,i,e[i]);u&&r.push(u)}return r.length?r:null}function et(t,n){if(!n.settings.duration||n.settings.duration<0)return null;var e,r,i,u,o,a=function(t,n){if(!n)return null;var e=[];if(Array.isArray(n))for(var r=n.length,i=0;i<r;i++){var u=n[i];if(2===u.length){var o=null;if("string"==typeof u[0])o=t.getElementById(u[0]);else if(Array.isArray(u[0])){o=[];for(var a=0;a<u[0].length;a++)if("string"==typeof u[0][a]){var l=t.getElementById(u[0][a]);l&&o.push(l)}o=o.length?1===o.length?o[0]:new $(o):null}if(o){var s=nt(t,o,u[1]);s&&(e=e.concat(s))}}}else for(var f in n)if(n.hasOwnProperty(f)){var c=t.getElementById(f);if(c){var h=nt(t,c,n[f]);h&&(e=e.concat(h))}}return e.length?e:null}(t,n.elements);return a?(e=a,r=n.settings,i=r.duration,u=e.length,o=null,function(t,n){var a=r.iterations||1/0,l=(r.alternate&&a%2==0)^r.direction>0?i:0,s=t%i,f=1+(t-s)/i;n*=r.direction,r.alternate&&f%2==0&&(n=-n);var c=!1;if(f>a)s=l,c=!0,-1===r.fill&&(s=r.direction>0?0:i);else if(n<0&&(s=i-s),s===o)return!1;o=s;for(var h=0;h<u;h++)e[h](s);return c}):null}function rt(t,n){if(Y=n,!t||!t.root||!Array.isArray(t.animations))return null;var e=function(t){for(var n=document.getElementsByTagName("svg"),e=0;e<n.length;e++)if(n[e].id===t.root&&!n[e].svgatorAnimation)return n[e].svgatorAnimation=!0,n[e];return null}(t);if(!e)return null;var r=t.animations.map((function(t){return et(e,t)})).filter((function(t){return!!t}));return r.length?{svg:e,animations:r,animationSettings:t.animationSettings,options:t.options||void 0}:null}function it(t){return+("0x"+(t.replace(/[^0-9a-fA-F]+/g,"")||27))}function ut(t,n,e){return!t||!e||n>t.length?t:t.substring(0,n)+ut(t.substring(n+1),e,e)}function ot(t){var n=arguments.length>1&&void 0!==arguments[1]?arguments[1]:27;return!t||t%n?t%n:ot(t/n,n)}function at(t,n,e){if(t&&t.length){var r=it(e),i=it(n),u=ot(r)+5,o=ut(t,ot(r,5),u);return o=o.replace(/\x7c$/g,"==").replace(/\x2f$/g,"="),o=function(t,n,e){var r=+("0x"+t.substring(0,4));t=t.substring(4);for(var i=n%r+e%27,u=[],o=0;o<t.length;o+=2)if("|"!==t[o]){var a=+("0x"+t[o]+t[o+1])-i;u.push(a)}else{var l=+("0x"+t.substring(o+1,o+1+4))-i;o+=3,u.push(l)}return String.fromCharCode.apply(String,u)}(o=(o=atob(o)).replace(/[\x41-\x5A]/g,""),i,r),o=JSON.parse(o)}}var lt=[{key:"alternate",def:!1},{key:"fill",def:1},{key:"iterations",def:0},{key:"direction",def:1},{key:"speed",def:1},{key:"fps",def:100}],st=function(){function t(n,e){var i=this,u=arguments.length>2&&void 0!==arguments[2]?arguments[2]:null;r(this,t),this._id=0,this._running=!1,this._rollingBack=!1,this._animations=n,this._settings=e,(!u||u<"2022-05-02")&&delete this._settings.speed,lt.forEach((function(t){i._settings[t.key]=i._settings[t.key]||t.def})),this.duration=e.duration,this.offset=e.offset||0,this.rollbackStartOffset=0}return u(t,[{key:"alternate",get:function(){return this._settings.alternate}},{key:"fill",get:function(){return this._settings.fill}},{key:"iterations",get:function(){return this._settings.iterations}},{key:"direction",get:function(){return this._settings.direction}},{key:"speed",get:function(){return this._settings.speed}},{key:"fps",get:function(){return this._settings.fps}},{key:"maxFiniteDuration",get:function(){return this.iterations>0?this.iterations*this.duration:this.duration}},{key:"_apply",value:function(t){for(var n=arguments.length>1&&void 0!==arguments[1]?arguments[1]:{},e=this._animations,r=e.length,i=0,u=0;u<r;u++)n[u]?i++:(n[u]=e[u](t,1),n[u]&&i++);return i}},{key:"_rollback",value:function(t){var n=this,e=1/0,r=null;this.rollbackStartOffset=t,this._rollingBack=!0,this._running=!0;this._id=window.requestAnimationFrame((function i(u){if(n._rollingBack){null==r&&(r=u);var o=Math.round(t-(u-r)*n.speed);if(o>n.duration&&e!==1/0){var a=!!n.alternate&&o/n.duration%2>1,l=o%n.duration;o=(l+=a?n.duration:0)||n.duration}var s=(n.fps?1e3/n.fps:0)*n.speed,f=Math.max(0,o);f<=e-s&&(n.offset=f,e=f,n._apply(f));var c=n.iterations>0&&-1===n.fill&&o>=n.maxFiniteDuration;(o<=0||n.offset<o||c)&&n.stop(),n._id=window.requestAnimationFrame(i)}}))}},{key:"_start",value:function(){var t=this,n=arguments.length>0&&void 0!==arguments[0]?arguments[0]:0,e=-1/0,r=null,i={};this._running=!0;var u=function u(o){null==r&&(r=o);var a=Math.round((o-r)*t.speed+n),l=(t.fps?1e3/t.fps:0)*t.speed;if(a>=e+l&&!t._rollingBack&&(t.offset=a,e=a,t._apply(a,i)===t._animations.length))return void t.pause(!0);t._id=window.requestAnimationFrame(u)};this._id=window.requestAnimationFrame(u)}},{key:"_pause",value:function(){this._id&&window.cancelAnimationFrame(this._id),this._running=!1}},{key:"play",value:function(){if(!this._running)return this._rollingBack?this._rollback(this.offset):this._start(this.offset)}},{key:"stop",value:function(){this._pause(),this.offset=0,this.rollbackStartOffset=0,this._rollingBack=!1,this._apply(0)}},{key:"reachedToEnd",value:function(){return this.iterations>0&&this.offset>=this.iterations*this.duration}},{key:"restart",value:function(){var t=arguments.length>0&&void 0!==arguments[0]&&arguments[0];this.stop(t),this.play(t)}},{key:"pause",value:function(){this._pause()}},{key:"reverse",value:function(){this.direction=-this.direction}}],[{key:"build",value:function(t,n){delete t.animationSettings,t.options=at(t.options,t.root,"5c7f360c"),t.animations.map((function(n){n.settings=at(n.s,t.root,"5c7f360c"),delete n.s,t.animationSettings||(t.animationSettings=n.settings)}));var e=t.version;if(!(t=rt(t,n)))return null;var r=t.options||{},i=new this(t.animations,t.animationSettings,e);return{el:t.svg,options:r,player:i}}},{key:"push",value:function(t){return this.build(t)}},{key:"init",value:function(){var t=this,n=window.__SVGATOR_PLAYER__&&window.__SVGATOR_PLAYER__["5c7f360c"];Array.isArray(n)&&n.splice(0).forEach((function(n){return t.build(n)}))}}]),t}();function ft(t){return d(t)+""}function ct(t){var n=arguments.length>1&&void 0!==arguments[1]?arguments[1]:" ";return t&&t.length?t.map(ft).join(n):""}function ht(t){if(!t)return"transparent";if(null==t.a||t.a>=1){var n=function(t){return 1===(t=parseInt(t).toString(16)).length?"0"+t:t},e=function(t){return t.charAt(0)===t.charAt(1)},r=n(t.r),i=n(t.g),u=n(t.b);return e(r)&&e(i)&&e(u)&&(r=r.charAt(0),i=i.charAt(0),u=u.charAt(0)),"#"+r+i+u}return"rgba("+t.r+","+t.g+","+t.b+","+t.a+")"}function vt(t){return t?"url(#"+t+")":"none"}!function(){for(var t=0,n=["ms","moz","webkit","o"],e=0;e<n.length&&!window.requestAnimationFrame;++e)window.requestAnimationFrame=window[n[e]+"RequestAnimationFrame"],window.cancelAnimationFrame=window[n[e]+"CancelAnimationFrame"]||window[n[e]+"CancelRequestAnimationFrame"];window.requestAnimationFrame||(window.requestAnimationFrame=function(n){var e=Date.now(),r=Math.max(0,16-(e-t)),i=window.setTimeout((function(){n(e+r)}),r);return t=e+r,i},window.cancelAnimationFrame=window.clearTimeout)}();var yt={f:null,i:function(t,n,e){return 0===t?n:1===t?e:{x:B(t,n.x,e.x),y:B(t,n.y,e.y)}},u:function(t,n){return function(e){var r=n(e);t.setAttribute("rx",ft(r.x)),t.setAttribute("ry",ft(r.y))}}},gt={f:null,i:function(t,n,e){return 0===t?n:1===t?e:{width:B(t,n.width,e.width),height:B(t,n.height,e.height)}},u:function(t,n){return function(e){var r=n(e);t.setAttribute("width",ft(r.width)),t.setAttribute("height",ft(r.height))}}};Object.freeze({M:2,L:2,Z:0,H:1,V:1,C:6,Q:4,T:2,S:4,A:7});var dt={},pt=null;function mt(t){var n=function(){if(pt)return pt;if("object"!==("undefined"==typeof document?"undefined":e(document))||!document.createElementNS)return{};var t=document.createElementNS("http://www.w3.org/2000/svg","svg");return t&&t.style?(t.style.position="absolute",t.style.opacity="0.01",t.style.zIndex="-9999",t.style.left="-9999px",t.style.width="1px",t.style.height="1px",pt={svg:t}):{}}().svg;if(!n)return function(t){return null};var r=document.createElementNS(n.namespaceURI,"path");r.setAttributeNS(null,"d",t),r.setAttributeNS(null,"fill","none"),r.setAttributeNS(null,"stroke","none"),n.appendChild(r);var i=r.getTotalLength();return function(t){var n=r.getPointAtLength(i*t);return{x:n.x,y:n.y}}}function bt(t){return dt[t]?dt[t]:dt[t]=mt(t)}function wt(t,n,e,r){if(!t||!r)return!1;var i=["M",t.x,t.y];if(n&&e&&(i.push("C"),i.push(n.x),i.push(n.y),i.push(e.x),i.push(e.y)),n?!e:e){var u=n||e;i.push("Q"),i.push(u.x),i.push(u.y)}return n||e||i.push("L"),i.push(r.x),i.push(r.y),i.join(" ")}function xt(t,n,e,r){var i=arguments.length>4&&void 0!==arguments[4]?arguments[4]:1,u=wt(t,n,e,r),o=bt(u);try{return o(i)}catch(t){return null}}function At(t,n,e){return t+(n-t)*e}function kt(t,n,e){var r=arguments.length>3&&void 0!==arguments[3]&&arguments[3],i={x:At(t.x,n.x,e),y:At(t.y,n.y,e)};return r&&(i.a=_t(t,n)),i}function _t(t,n){return Math.atan2(n.y-t.y,n.x-t.x)}function St(t,n,e,r){var i=1-r;return i*i*t+2*i*r*n+r*r*e}function Ot(t,n,e,r){return 2*(1-r)*(n-t)+2*r*(e-n)}function jt(t,n,e,r){var i=arguments.length>4&&void 0!==arguments[4]&&arguments[4],u=xt(t,n,null,e,r);return u||(u={x:St(t.x,n.x,e.x,r),y:St(t.y,n.y,e.y,r)}),i&&(u.a=Mt(t,n,e,r)),u}function Mt(t,n,e,r){return Math.atan2(Ot(t.y,n.y,e.y,r),Ot(t.x,n.x,e.x,r))}function Pt(t,n,e,r,i){var u=i*i;return i*u*(r-t+3*(n-e))+3*u*(t+e-2*n)+3*i*(n-t)+t}function Et(t,n,e,r,i){var u=1-i;return 3*(u*u*(n-t)+2*u*i*(e-n)+i*i*(r-e))}function It(t,n,e,r,i){var u=arguments.length>5&&void 0!==arguments[5]&&arguments[5],o=xt(t,n,e,r,i);return o||(o={x:Pt(t.x,n.x,e.x,r.x,i),y:Pt(t.y,n.y,e.y,r.y,i)}),u&&(o.a=Rt(t,n,e,r,i)),o}function Rt(t,n,e,r,i){return Math.atan2(Et(t.y,n.y,e.y,r.y,i),Et(t.x,n.x,e.x,r.x,i))}function Ft(t,n,e){var r=arguments.length>3&&void 0!==arguments[3]&&arguments[3];if(Tt(n)){if(qt(e))return jt(n,e.start,e,t,r)}else if(Tt(e)){if(Bt(n))return jt(n,n.end,e,t,r)}else{if(Bt(n))return qt(e)?It(n,n.end,e.start,e,t,r):jt(n,n.end,e,t,r);if(qt(e))return jt(n,e.start,e,t,r)}return kt(n,e,t,r)}function Nt(t,n,e){var r=Ft(t,n,e,!0);return r.a=function(t){return arguments.length>1&&void 0!==arguments[1]&&arguments[1]?t+Math.PI:t}(r.a)/m,r}function Tt(t){return!t.type||"corner"===t.type}function qt(t){return null!=t.start&&!Tt(t)}function Bt(t){return null!=t.end&&!Tt(t)}var Lt=new N;var Ct={f:ft,i:q},Dt={f:ft,i:L};function zt(t,n,e){return t.map((function(t){return function(t,n,e){var r=t.v;if(!r||"g"!==r.t||r.s||!r.v||!r.r)return t;var i=e.getElementById(r.r),u=i&&i.querySelectorAll("stop")||[];return r.s=r.v.map((function(t,n){var e=u[n]&&u[n].getAttribute("offset");return{c:t,o:e=d(parseInt(e)/100)}})),delete r.v,t}(t,0,e)}))}var Vt={gt:"gradientTransform",c:{x:"cx",y:"cy"},rd:"r",f:{x:"x1",y:"y1"},to:{x:"x2",y:"y2"}};function Gt(t,n,r,i,u,o,a,l){return zt(t,0,l),n=function(t,n,e){for(var r,i,u,o=t.length-1,a={},l=0;l<=o;l++)(r=t[l]).e&&(r.e=n(r.e)),r.v&&"g"===(i=r.v).t&&i.r&&(u=e.getElementById(i.r))&&(a[i.r]={e:u,s:u.querySelectorAll("stop")});return a}(t,i,l),function(i){var u=r(i,t,Yt);if(!u)return"none";if("c"===u.t)return ht(u.v);if("g"===u.t){if(!n[u.r])return vt(u.r);var o=n[u.r];return function(t,n){for(var e=t.s,r=e.length;r<n.length;r++){var i=e[e.length-1].cloneNode();i.id=Qt(i.id),t.e.appendChild(i),e=t.s=t.e.querySelectorAll("stop")}for(var u=0,o=e.length,a=n.length-1;u<o;u++)e[u].setAttribute("stop-color",ht(n[Math.min(u,a)].c)),e[u].setAttribute("offset",n[Math.min(u,a)].o)}(o,u.s),Object.keys(Vt).forEach((function(t){if(void 0!==u[t])if("object"!==e(Vt[t])){var n,r="gt"===t?(n=u[t],Array.isArray(n)?"matrix("+n.join(" ")+")":""):u[t],i=Vt[t];o.e.setAttribute(i,r)}else Object.keys(Vt[t]).forEach((function(n){if(void 0!==u[t][n]){var e=u[t][n],r=Vt[t][n];o.e.setAttribute(r,e)}}))})),vt(u.r)}return"none"}}function Yt(t,e,r){if(0===t)return e;if(1===t)return r;if(e&&r){var i=e.t;if(i===r.t)switch(e.t){case"c":return{t:i,v:z(t,e.v,r.v)};case"g":if(e.r===r.r){var u={t:i,s:$t(t,e.s,r.s),r:e.r};return e.gt&&r.gt&&(u.gt=function(t,n,e){var r=n.length;if(r!==e.length)return T(t,n,e);for(var i=new Array(r),u=0;u<r;u++)i[u]=q(t,n[u],e[u]);return i}(t,e.gt,r.gt)),e.c?(u.c=C(t,e.c,r.c),u.rd=B(t,e.rd,r.rd)):e.f&&(u.f=C(t,e.f,r.f),u.to=C(t,e.to,r.to)),u}}if("c"===e.t&&"g"===r.t||"c"===r.t&&"g"===e.t){var o="c"===e.t?e:r,a="g"===e.t?n({},e):n({},r),l=a.s.map((function(t){return{c:o.v,o:t.o}}));return a.s="c"===e.t?$t(t,l,a.s):$t(t,a.s,l),a}}return T(t,e,r)}function $t(t,n,e){if(n.length===e.length)return n.map((function(n,r){return Ut(t,n,e[r])}));for(var r=Math.max(n.length,e.length),i=[],u=0;u<r;u++){var o=Ut(t,n[Math.min(u,n.length-1)],e[Math.min(u,e.length-1)]);i.push(o)}return i}function Ut(t,n,e){return{o:L(t,n.o,e.o||0),c:z(t,n.c,e.c||{})}}function Qt(t){return t.replace(/-fill-([0-9]+)$/,(function(t,n){return"-fill-"+(+n+1)}))}var Ht={fill:Gt,"fill-opacity":Dt,stroke:Gt,"stroke-opacity":Dt,"stroke-width":Ct,"stroke-dashoffset":{f:ft,i:q},"stroke-dasharray":{f:function(t){var n=arguments.length>1&&void 0!==arguments[1]?arguments[1]:" ";return t&&t.length>0&&(t=t.map((function(t){return d(t,4)}))),ct(t,n)},i:function(t,n,e){var r,i,u,o=n.length,a=e.length;if(o!==a)if(0===o)n=V(o=a,0);else if(0===a)a=o,e=V(o,0);else{var l=(u=(r=o)*(i=a)/function(t,n){for(var e;n;)e=n,n=t%n,t=e;return t||1}(r,i))<0?-u:u;n=G(n,Math.floor(l/o)),e=G(e,Math.floor(l/a)),o=a=l}for(var s=[],f=0;f<o;f++)s.push(d(B(t,n[f],e[f])));return s}},opacity:Dt,transform:function(t,n,r,i){if(!(t=function(t,n){if(!t||"object"!==e(t))return null;var r=!1;for(var i in t)t.hasOwnProperty(i)&&(t[i]&&t[i].length?(t[i].forEach((function(t){t.e&&(t.e=n(t.e))})),r=!0):delete t[i]);return r?t:null}(t,i)))return null;var u=function(e,i,u){var o=arguments.length>3&&void 0!==arguments[3]?arguments[3]:null;return t[e]?r(i,t[e],u):n&&n[e]?n[e]:o};return n&&n.a&&t.o?function(n){var e=r(n,t.o,Nt);return Lt.recomposeSelf(e,u("r",n,q,0)+e.a,u("k",n,C),u("s",n,C),u("t",n,C)).toString()}:function(t){return Lt.recomposeSelf(u("o",t,Ft,null),u("r",t,q,0),u("k",t,C),u("s",t,C),u("t",t,C)).toString()}},r:Ct,"#size":gt,"#radius":yt,_:function(t,n){if(Array.isArray(t))for(var e=0;e<t.length;e++)this[t[e]]=n;else this[t]=n}},Jt=function(t){!function(t,n){if("function"!=typeof n&&null!==n)throw new TypeError("Super expression must either be null or a function");t.prototype=Object.create(n&&n.prototype,{constructor:{value:t,writable:!0,configurable:!0}}),n&&l(t,n)}(o,t);var n,e,i=(n=o,e=s(),function(){var t,r=a(n);if(e){var i=a(this).constructor;t=Reflect.construct(r,arguments,i)}else t=r.apply(this,arguments);return c(this,t)});function o(){return r(this,o),i.apply(this,arguments)}return u(o,null,[{key:"build",value:function(t){var n=h(a(o),"build",this).call(this,t,Ht);if(!n)return null;n.el,n.options,function(t,n,e){t.play()}(n.player)}}]),o}(st);return Jt.init(),Jt}));
(function(s,i,o,w,a,b){w[o]=w[o]||{};w[o][s]=w[o][s]||[];w[o][s].push(i);})('5c7f360c',{"root":"exo0mZVPlHI1","version":"2022-05-04","animations":[{"elements":{"exo0mZVPlHI2":{"transform":{"data":{"o":{"x":414.089841,"y":269.382209,"type":"corner"},"s":{"x":0.99,"y":1},"t":{"x":-414.08984,"y":-269.382208}},"keys":{"r":[{"t":0,"v":0},{"t":1000,"v":10},{"t":1300,"v":0}]}}},"exo0mZVPlHI25":{"transform":{"data":{"o":{"x":523.399994,"y":380.614822,"type":"corner"},"t":{"x":-523.399994,"y":-380.614822}},"keys":{"r":[{"t":400,"v":0},{"t":900,"v":370},{"t":1400,"v":0}]}}},"exo0mZVPlHI26":{"transform":{"data":{"o":{"x":435.600006,"y":291.300003,"type":"corner"},"t":{"x":-435.600006,"y":-291.300003}},"keys":{"s":[{"t":0,"v":{"x":0.13,"y":0.13}},{"t":200,"v":{"x":1,"y":1}},{"t":500,"v":{"x":1,"y":1}},{"t":800,"v":{"x":0.13,"y":0.13}},{"t":1400,"v":{"x":1,"y":1}}]}}},"exo0mZVPlHI29":{"transform":{"data":{"o":{"x":590.199982,"y":278.760254,"type":"corner"},"t":{"x":-590.199982,"y":-278.760254}},"keys":{"s":[{"t":0,"v":{"x":0.130681,"y":0.130681}},{"t":200,"v":{"x":1,"y":1}},{"t":500,"v":{"x":1,"y":1}},{"t":800,"v":{"x":0.13,"y":0.13}},{"t":1400,"v":{"x":1,"y":1}}]}}}},"s":"MRDA1ZTk0M2I3ZEo4ZUFNWOGI3YThkODJXODgW4NzNiTTUzNGM0OTQ5ANDk0NVgzYjdkODI4YGjdlN2M4ZDgyODg4NzINiNTNGNGE0NTNiVFgI4MjhkN2U4YjdhOGQ4SMjg4ODc4YzNiNTM0YCjRlNDVEM2I3ZjgyODFU4NTNiNTM0YTQ1M2IG3YTg1RDhkN2U4Yjg3NN2E4ZDdlM2I1MzdmNJ2E4NThjN2U0NTNiOGVM4OTdlN2U3ZDNiNTMA0YTQ1M2I3Zjg5OGMzKYjUzNGE0OTQ5OTY/"}],"options":"MCDAxMDg4MmY4MDgxNmPU3ZjgxMmY0N1UyZjcU5N2M2ZTcxMmZDOGE/V"},'__SVGATOR_PLAYER__',window)
]]></script>
</svg>
