<?xml version="1.0" encoding="utf-8"?>
<!-- Generator: Adobe Illustrator 26.5.0, SVG Export Plug-In . SVG Version: 6.00 Build 0)  -->
<svg version="1.1" id="Layer_1" xmlns="http://www.w3.org/2000/svg" xmlns:xlink="http://www.w3.org/1999/xlink" x="0px" y="0px"
	 viewBox="0 0 828.3 538.4" style="enable-background:new 0 0 828.3 538.4;" xml:space="preserve">
<style type="text/css">
	.st0{fill-rule:evenodd;clip-rule:evenodd;fill:#FFFFFF;}
	.st1{fill-rule:evenodd;clip-rule:evenodd;fill:#F7AF41;}
	.st2{fill-rule:evenodd;clip-rule:evenodd;fill:#7EC54B;}
	.st3{fill-rule:evenodd;clip-rule:evenodd;fill:#61A134;}
	.st4{fill-rule:evenodd;clip-rule:evenodd;fill:#E63C45;}
	.st5{fill-rule:evenodd;clip-rule:evenodd;fill:#CC8042;}
	.st6{fill-rule:evenodd;clip-rule:evenodd;fill:#FFE7C5;}
	.st7{fill-rule:evenodd;clip-rule:evenodd;fill:#721146;}
	.st8{fill:#721146;}
	.st9{fill-rule:evenodd;clip-rule:evenodd;fill:#A9F076;}
	.st10{fill-rule:evenodd;clip-rule:evenodd;fill:#C72E36;}
	.st11{fill-rule:evenodd;clip-rule:evenodd;fill:#FFC928;}
	.st12{fill-rule:evenodd;clip-rule:evenodd;fill:#D3922C;}
	.st13{fill-rule:evenodd;clip-rule:evenodd;fill:#FC6068;}
</style>
<g>
	<path class="st0" d="M618.4,75.2c24.4-18.2,53.9-27.3,84.7-22.9c17.3,2.5,33.9,9.1,48.2,19.3c14.1,10.2,25.7,23.6,33.6,39.1
		c13.9,27.2,15,57.7,5.6,86.1c8,5.6,15,12.5,20.7,20.4c7.7,10.9,12.9,23.3,15.5,36.4c2.6,13.8,2.2,28.2-0.9,42
		c-6.2,26.5-22,49-42.6,66.4c0.4,11.2-0.3,22.5-2.7,33.4c-25.8,117.1-251.9,139.5-348.8,142.5c-64.4,2-131.2-1.6-194.6-13.2
		c-47.1-8.5-105.5-24.1-144.3-52.9c-2.5-1.8-4.9-3.7-7.2-5.6c-34.6-4.9-60.7-30.4-70.8-63.5c-14.7-39.9-19-82.4-9.7-124.1
		c8.2-37,26.5-70.3,52.3-98c26.7-28.5,60.4-49.8,97-63.5c3.2-1.2,6.3-2.3,9.5-3.3c6.1-6.8,13.2-12.4,21.5-16.2
		c17-7.7,28.7-8.2,46.7-5.6c9.3,1.4,14.5,1.5,23.4-2.4c8.5-3.8,12.6-9.5,17.6-16.9c6.5-9.9,12.1-17.5,22.8-23.6
		c12.3-7.2,22.7-7.3,36.4-6.1c1.5,0.2,6.2,0.6,8,0.3c1.4-1.5,3.4-6.2,4.2-7.8c6.2-13,11.9-22.7,25.3-29.7
		c12.6-6.6,24.8-7.9,37.9-2.3c4.1,1.7,7.9,3.8,11.7,6.1c1.2,0.7,3.4,2.1,4.9,2.6c5,0.3,9.1-0.5,13.8-1.6c10.7-2.5,18.8-3.7,29.9-2.3
		c11.9,1.5,22,4.6,32.3,11C510.8,25.9,519.6,35,527,45c0.1,0,0.2-0.1,0.3-0.1c16-4.4,32.6-3.9,48.5,1.4
		C592.5,51.9,606.7,62.4,618.4,75.2L618.4,75.2z"/>
	<path class="st1" d="M741.2,386.8c5.6-25.6-1.1-57.8-17.2-89.6c-16.6-32.9-43-65.1-75.9-89.5c-24.1-17.9-51.7-31.4-81.5-38
		C444.4,142.7,344.6,248.9,261,338c-46.5,49.6-88.5,94.2-129.5,111.4c63.1,35.9,181.9,52.1,298.9,48.5
		C498.6,495.7,721.1,477.8,741.2,386.8L741.2,386.8z"/>
	<path class="st2" d="M239.2,317.5c27.3-29.1,56.3-59.9,87.3-87.7c-4.9-28.8-29.4-47.6-58-45.6c-43.5,3-44.4,41.8-37.9,76.1
		c-20.4-20.7-56.6-45-95.5-24.5c-8.1,4.6-14.8,12-18.5,22.6c-7.4,21.5-3.7,47.2,3.4,66.5c-21.5-3.8-48.6-2.1-62.7,20.6
		c-8.5,13.8-8.9,32.2-3.8,47.3c5.6,16.3,17.9,30,35.4,33.5C129.6,434.2,180.4,380.1,239.2,317.5L239.2,317.5z"/>
	<path class="st3" d="M239.2,317.5c27.3-29.1,56.3-59.9,87.3-87.7c-14.4-22.1-40.2-23.6-55.9-15.7c-19,9.6-32,35.3-32.5,66.5
		c-56.9-40.3-120.2,2.6-92.5,73.2c-60.6-28.5-96.1,52.9-56.8,72.3C129.6,434.2,180.4,380.1,239.2,317.5L239.2,317.5z"/>
	<path class="st4" d="M351.6,208.3c45-36.2,94.2-64.4,149-71.3c-5.6-3.5-12.6-4.1-19.1-4.7c-11.1-1-21.4-2.1-29.9-9.2
		c-6.4-5.5-10.9-11.6-15.2-17.6c-5.6-7.7-10.9-15-19.1-14.2c-8.6,0.9-12.5,6.7-16.7,12.9c-7.7,11.5-15.8,23.7-38.1,29.2
		c-19.1,4.7-38.5,27.4-27.9,47.3C341.7,188.3,347.6,197.5,351.6,208.3L351.6,208.3z"/>
	<path class="st2" d="M573,140.4c34.1,7.4,65.5,23,92.9,43.2c36.8,27.3,66.2,63.2,84.8,100c6.6,13,11.8,26.2,15.6,39.2
		c11-11.8,17.5-24.4,20.3-36.4c2.1-8.8,2.1-17.3,0.6-25.3c-1.5-7.7-4.5-14.8-8.7-20.7c-11.6-16.2-25.3-20.3-43.9-21.4
		c19.8-21.6,32.1-56.2,14.8-90.2c-5-9.8-12.5-18.2-21.5-24.7c-8.9-6.3-19.3-10.7-30.4-12.2c-39.1-5.6-69,17.9-85,45.7
		c-6.8-20.6-25-45.2-49.3-53.4c-8.7-3-17.3-2.9-25-0.8c-11.9,3.3-23.1,12.2-28.1,23.7c10.9,3.9,20.6,11.5,26.3,27.8
		C548.8,136.7,560.5,137.6,573,140.4L573,140.4z"/>
	<path class="st3" d="M573,140.4c9.9,2.1,19.7,5,29.1,8.5c-15-52.1-66-48.5-76.4-31.9c4.2,4.4,7.9,10.2,10.6,17.9
		C548.8,136.7,560.5,137.6,573,140.4L573,140.4z M607.4,150.9c20.9,8.3,40.6,19.5,58.5,32.7c16.8,12.4,32,26.6,45.4,41.9
		C764.4,146.4,680.8,75.8,607.4,150.9L607.4,150.9z M717.2,232.5c13.4,16.3,24.7,33.6,33.5,51.1c3.3,6.6,6.2,13.2,8.9,19.7
		C772.4,268.8,767.1,233.8,717.2,232.5L717.2,232.5z"/>
	<path class="st5" d="M734.7,403.8c-30.9,48-165.5,75.3-280.2,65.2c0.1-0.7,0.2-1.4,0.2-2.1c0-6.4-5.1-11.5-11.5-11.5
		c-6.2,0-11.3,4.9-11.6,11c-5.8-0.8-11.6-1.7-17.3-2.7c0-0.3,0-0.5,0-0.7c0-12.2-9.9-22.1-22-22.1c-8.8,0-16.4,5.2-20,12.6
		c-19.1-6.1-36.3-13.8-50.4-23.2c7.4-5.9,12.1-15,12.1-25.2c0-17.8-14.4-32.2-32.1-32.2c-7,0-13.4,2.2-18.7,6
		c-5.5-23.3-0.1-51.4,20.2-85c-14.4,14.7-28.5,29.7-42.1,44.2c-46.5,49.6-88.5,94.2-129.5,111.4c63.1,35.9,181.9,52.1,298.9,48.5
		C494.2,495.9,692.5,480,734.7,403.8L734.7,403.8z M352.6,349c4.4,0,8,3.6,8,7.9c0,4.4-3.6,7.9-8,7.9c-4.4,0-7.9-3.5-7.9-7.9
		C344.6,352.6,348.2,349,352.6,349L352.6,349z M311.7,336.7c5.8,0,10.5,4.7,10.5,10.5s-4.7,10.5-10.5,10.5s-10.5-4.7-10.5-10.5
		S305.9,336.7,311.7,336.7L311.7,336.7z M363.9,397.5c8.5,0,15.6,7,15.6,15.6c0,8.6-7,15.6-15.6,15.6c-8.6,0-15.6-6.9-15.6-15.6
		C348.3,404.5,355.2,397.5,363.9,397.5L363.9,397.5z M425.3,427.9c4.2,0,7.6,3.4,7.6,7.6s-3.4,7.6-7.6,7.6s-7.6-3.4-7.6-7.6
		S421.1,427.9,425.3,427.9L425.3,427.9z"/>
	<path class="st6" d="M386.4,219.5c47.2-29.8,93.9-43.1,138.2-42.2c-1.9,1.9-3.1,4.1-3.3,6.6c-0.7,8.4,10.5,16.1,25.1,17.3
		c14.5,1.2,26.8-4.6,27.5-13c0.2-1.4-0.1-2.6-0.5-4C635.9,200.9,691,247.1,732,315c-2.4-5.9-5-11.9-8-17.9
		c-16.6-32.9-43-65.1-75.9-89.5c-24.1-17.9-51.7-31.4-81.5-38C500.2,155,440.5,179.6,386.4,219.5L386.4,219.5z"/>
	<path class="st7" d="M435.6,322.9c11.5,0,20.9-14.3,20.9-31.6c0-17.4-9.4-31.6-20.9-31.6c-11.5,0-20.9,14.2-20.9,31.6
		C414.8,308.7,424.1,322.9,435.6,322.9L435.6,322.9z"/>
	<path class="st7" d="M590.2,306.6c9.7,0,17.6-12,17.6-26.7c0-14.7-7.9-26.7-17.6-26.7s-17.6,12-17.6,26.7
		C572.6,294.7,580.5,306.6,590.2,306.6L590.2,306.6z"/>
	<path class="st8" d="M454.3,365.8c0.2,0.3,90.5,58.9,138.2-15.8C588.9,417.2,500.1,438.4,454.3,365.8L454.3,365.8z"/>
	<path class="st9" d="M119.9,324.7c-18.5-97.8,56.9-106,110.6-64.5c-20.4-20.7-56.6-45-95.5-24.5c-8.1,4.6-14.8,12-18.5,22.6
		C109,279.7,112.8,305.4,119.9,324.7L119.9,324.7z"/>
	<path class="st9" d="M52.6,390.3c-3.1-37.6,18.5-68.7,67.3-65.5c-21.5-3.8-48.6-2.1-62.7,20.6C49,358.4,48.3,375.7,52.6,390.3
		L52.6,390.3z"/>
	<path class="st9" d="M230.5,260.2c-4.6-66.5,35.6-83.5,79.6-61.6c-10.8-10.1-25.6-15.6-41.6-14.4
		C224.9,187.2,224,225.9,230.5,260.2L230.5,260.2z"/>
	<path class="st10" d="M378.6,163.6c-10.6,2.8-23.6-10.2-33-5c-5.7,3.2-10,9.4-11,22.2c7.1,7.5,13,16.8,16.9,27.5
		c37.8-30.5,78.6-55.1,123.1-66.4c-10.3-0.7-20.4-0.5-26.8-2.1c-15-3.7-18.3-19-32.2-16.6C399.7,126,403.3,157.1,378.6,163.6
		L378.6,163.6z"/>
	<path class="st9" d="M618,129c42.3-39,87.2-33.3,110.2-8.7c19.7,21.1,25.3,57.9,6.3,98.9c19.8-21.6,32.1-56.2,14.8-90.2
		c-5-9.8-12.5-18.2-21.5-24.7c-8.9-6.3-19.3-10.7-30.4-12.2C662.5,86.9,634.9,105.2,618,129L618,129z"/>
	<path class="st9" d="M778.4,240.5c-11.6-16.2-25.3-20.3-43.9-21.4c47.4,6.8,54,56.7,27.9,91.7c1.4,4,2.7,8,3.8,12
		c11-11.8,17.5-24.4,20.3-36.4c2.1-8.8,2.1-17.3,0.6-25.3C785.7,253.5,782.6,246.4,778.4,240.5L778.4,240.5z"/>
	<path class="st9" d="M518.5,111.2c17.4-33.1,64.6-22,85.5,8.5c-9.2-15.2-23.5-29.6-40.9-35.4c-8.7-3-17.3-2.9-25-0.8
		c-11.9,3.3-23.1,12.2-28.1,23.7C512.9,108.2,515.7,109.6,518.5,111.2L518.5,111.2z"/>
	<path class="st0" d="M442.4,284.2c3,0,5.4-2.6,5.4-5.8c0-3.2-2.4-5.8-5.4-5.8c-3,0-5.4,2.6-5.4,5.8
		C437,281.6,439.4,284.2,442.4,284.2L442.4,284.2z"/>
	<path class="st0" d="M594.6,275.9c2.9,0,5.4-2.6,5.4-5.8c0-3.2-2.5-5.8-5.4-5.8c-3,0-5.5,2.6-5.5,5.8
		C589.1,273.3,591.6,275.9,594.6,275.9L594.6,275.9z"/>
	<path class="st1" d="M84.1,296.1c-2.1-18.8-0.3-34.5,4.2-47.5c6.3-18.3,17.9-31,32.1-39c7.5-4.2,15.6-7.3,23.8-9.2
		c0.5-7.4,2-22.4,6.4-38.5c-25,11.7-46.7,27.3-64.1,45.9c-21.2,22.6-36,49.7-42.6,79.4c-2.3,10.3-3.7,20.8-3.9,31.5
		C50.5,307.5,65.1,299.2,84.1,296.1L84.1,296.1z"/>
	<path class="st5" d="M84.1,296.1c-2.1-18.8-0.3-34.5,4.2-47.5c6.3-18.3,17.9-31,32.1-39c7.5-4.2,15.6-7.3,23.8-9.2
		c0.3-4.3,0.9-11.1,2.2-19.2c-18.1,10.4-34.2,23.1-47.6,37.4c-21.2,22.6-36,49.7-42.6,79.4c-0.6,2.9-1.2,5.9-1.7,8.8
		C62.8,301.7,72.6,297.9,84.1,296.1L84.1,296.1z"/>
	<path class="st11" d="M201.4,133.5c-21.2,9.6-26.6,49.6-27.9,65.2c9.4,1,18.7,3.7,27.5,8c4.8-19.9,17.1-34.3,32.8-43.1
		c9.9-5.5,21.1-8.5,32.6-9.3c12.2-0.9,24.7,1,36.2,5.3c3.7-27.7,26.1-52.3,52.6-55.3c11.1-2.7,15.9-10,20.4-16.8
		c8.2-12.3,15.9-23.8,38.5-26.1c25.2-2.6,35.6,11.5,46.3,26.3c3.3,4.6,6.8,9.3,10.3,12.3c1.1,0.9,4.7,1.5,9.1,2
		c3.4-11.2,10-21.3,18.5-29.4c-7-10.3-13.3-16.4-19.1-20c-5.6-3.5-11-4.7-16.2-5.3c-6.3-0.8-11.2,0.3-16.2,1.5
		c-7.3,1.7-14.9,3.5-26.9,2.4c-8.5-0.9-14.5-4.3-20.5-7.8c-4.2-2.4-8.3-4.8-11.7-3c-3.2,1.7-5.6,6.7-7.9,11.8
		c-4.4,9.2-8.8,18.5-20.3,25.1c-11.5,6.5-21.2,5.6-30.9,4.7c-5.1-0.4-10.3-0.9-13.4,0.9c-3.4,2-6.3,6.4-9.6,11.3
		c-7.1,10.7-15,22.6-34.6,31.3c-20.5,9-32.9,7.1-45,5.3C218.7,129.9,211.6,128.9,201.4,133.5L201.4,133.5z"/>
	<path class="st12" d="M183.3,200.4c6.1,1.4,12,3.5,17.8,6.3c4.8-19.9,17.1-34.3,32.8-43.1c9.9-5.5,21.1-8.5,32.6-9.3
		c12.2-0.9,24.7,1,36.2,5.3c3.7-27.7,26.1-52.3,52.6-55.3c11.1-2.7,15.9-10,20.4-16.8c8.2-12.3,15.9-23.8,38.5-26.1l0.3-0.1
		c-2.4-1.1-4.5-2.4-6.8-3.7c-4.2-2.4-8.3-4.8-11.7-3c-3.2,1.7-5.6,6.8-7.9,11.8c-4.4,9.2-8.8,18.5-20.3,25.1
		c-11.5,6.5-21.2,5.6-30.9,4.7c-5.1-0.4-10.3-0.9-13.4,0.9c-3.4,2-6.3,6.4-9.6,11.3c-7.1,10.7-15,22.6-34.6,31.3
		c-20.5,9-32.9,7.1-45,5.3c-7.4-1.1-14.5-2.1-24.7,2.5C192.9,155.3,186.1,181.9,183.3,200.4L183.3,200.4z M439.1,65.8
		c9.1,5,15.2,13.4,21.5,22c3.3,4.6,6.8,9.3,10.3,12.3c1.1,0.9,4.7,1.5,9.1,2c3.2-10.4,9.1-19.9,16.8-27.7c-3.2-3.3-6.2-5.7-9.1-7.5
		c-5.6-3.5-11-4.7-16.2-5.3c-6.3-0.8-11.2,0.3-16.2,1.5C450.3,64.3,445.3,65.5,439.1,65.8L439.1,65.8z"/>
	<path class="st13" d="M339.5,148.5c3.4-3.2,10-7,22.6-9.6c24.5-5,29.7-10.9,37.6-22.4c7.9-11.6,8.6-18.8,18.8-18.8
		c10.1,0,21.2,29.2,41,30.2c-2.8-1.2-5.4-2.8-7.9-4.9c-6.4-5.5-10.9-11.6-15.2-17.6c-5.6-7.7-10.9-15-19.1-14.2
		c-8.6,0.9-12.5,6.7-16.7,12.9c-7.7,11.5-15.8,23.7-38.1,29.2C354,135.4,345.4,141.1,339.5,148.5L339.5,148.5z"/>
	<path class="st8" d="M326.4,229.8c-4.9-28.8-29.4-47.6-58-45.6c-43.5,3-44.4,41.8-37.9,76.1c-20.4-20.7-56.6-45-95.5-24.5
		c-8.1,4.6-14.8,12-18.5,22.6c-7.4,21.5-3.7,47.2,3.4,66.5c-21.5-3.8-48.6-2.1-62.7,20.6c-8.5,13.8-8.9,32.2-3.8,47.3
		c5.6,16.3,17.9,30,35.4,33.5c40.9,8.1,91.6-46,150.4-108.6C266.5,288.4,295.5,257.6,326.4,229.8L326.4,229.8z M144.2,200.4
		c0.5-7.4,2-22.4,6.4-38.5c-25,11.7-46.7,27.3-64.1,45.9c-21.2,22.6-36,49.7-42.6,79.4c-2.3,10.3-3.7,20.8-3.9,31.5
		c10.4-11.3,25-19.6,44-22.6c-2.1-18.8-0.3-34.5,4.2-47.5c6.3-18.3,17.9-31,32.1-39C127.9,205.4,135.9,202.4,144.2,200.4
		L144.2,200.4z M169.6,122.5c5.4-6.6,11.9-12,19.7-15.6c17.9-8.1,29.3-6.5,41-4.7c7.9,1.1,16.2,2.4,29-3.2
		c11.6-5,17.1-13.2,21.9-20.6c5.3-7.8,10-15,19.5-20.4c11.2-6.4,20.8-5.6,30.4-4.7c5.2,0.5,10.5,0.9,14.1-1
		c3.3-1.9,5.7-7.1,8.2-12.2c4.4-9.5,8.9-18.9,20.9-25.1c17.7-9.2,28.7-2.9,39.8,3.5c3.2,1.9,6.5,3.8,8.5,4
		c7.1,0.6,12.4-0.6,17.6-1.9c7.6-1.8,15-3.5,26.3-2.1c8.7,1,17.9,3.2,28.2,9.5c9.1,5.6,18.5,14.6,28.3,29.1c2.3-0.9,4.6-1.6,6.9-2.3
		c13.2-3.7,27.8-3.8,42.6,1.2c15.2,5.1,30.6,15.7,44.4,33.4c27-23.4,57.3-30.9,84.7-27c16,2.3,30.9,8.5,43.7,17.5
		c12.6,9.1,23.2,21.2,30.5,35.5c12.4,24.3,15,54.4,2.1,85.7c9.8,5.3,18.2,12.9,24.8,22.1c6.7,9.4,11.5,20.4,13.8,32.5
		c2.3,11.9,2.2,24.6-0.9,37.7c-5.1,22-18.6,44.6-43.1,64.2c0.9,12.5,0.3,24.5-2.2,35.7c-24.6,111.9-254.4,132-339.2,134.6
		c-132.9,4.1-269.5-17.4-332.6-64.2c-3.2-2.3-6.2-4.7-8.9-7.2c-32.3-3.2-56.2-26.7-65.5-57C8.9,358,6.5,317.6,14.8,280.8
		c7.9-35.1,25.2-66.9,49.9-93.3c24.4-26.2,56.2-47.2,93.1-60.9C161.7,125.1,165.6,123.7,169.6,122.5L169.6,122.5z M498.5,72.7
		c-7-10.3-13.3-16.4-19.1-20c-5.6-3.5-11-4.7-16.2-5.3c-6.3-0.8-11.2,0.3-16.2,1.5c-7.3,1.7-14.9,3.5-26.9,2.4
		c-8.5-0.9-14.5-4.3-20.5-7.8c-4.2-2.4-8.3-4.8-11.7-3c-3.2,1.7-5.6,6.7-7.9,11.8c-4.4,9.2-8.8,18.5-20.3,25.1
		c-11.5,6.5-21.2,5.6-30.9,4.7c-5.1-0.4-10.3-0.9-13.4,0.9c-3.4,2-6.3,6.4-9.6,11.3c-7.1,10.7-15,22.6-34.6,31.3
		c-20.5,9-32.9,7.1-45,5.3c-7.4-1.1-14.5-2.1-24.7,2.5c-21.2,9.6-26.6,49.6-27.9,65.2c9.4,1,18.7,3.7,27.5,8
		c4.8-19.9,17.1-34.3,32.8-43.1c9.9-5.5,21.1-8.5,32.6-9.3c12.2-0.9,24.7,1,36.2,5.3c3.7-27.7,26.1-52.3,52.6-55.3
		c11.1-2.7,15.9-10,20.4-16.8c8.2-12.3,15.9-23.8,38.5-26.1c25.2-2.6,35.6,11.5,46.3,26.3c3.3,4.6,6.8,9.3,10.3,12.3
		c1.1,0.9,4.7,1.5,9.1,2C483.4,90.9,490,80.8,498.5,72.7L498.5,72.7z M766.2,322.9c11-11.8,17.5-24.4,20.3-36.4
		c2.1-8.8,2.1-17.3,0.6-25.3c-1.5-7.7-4.5-14.8-8.7-20.7c-11.6-16.2-25.3-20.3-43.9-21.4c19.8-21.6,32.1-56.2,14.8-90.2
		c-5-9.8-12.5-18.2-21.5-24.7c-8.9-6.3-19.3-10.7-30.4-12.2c-39.1-5.6-69,17.9-85,45.7c-6.8-20.6-25-45.2-49.3-53.4
		c-8.7-3-17.3-2.9-25-0.8c-11.9,3.3-23.1,12.2-28.1,23.7c10.9,3.9,20.6,11.5,26.3,27.8c12.5,1.8,24.2,2.6,36.7,5.5
		c34.1,7.4,65.5,23,92.9,43.2c36.8,27.3,66.2,63.2,84.8,100C757.2,296.6,762.4,309.9,766.2,322.9L766.2,322.9z M500.5,137
		c-5.6-3.5-12.6-4.1-19.1-4.7c-11.1-1-21.4-2.1-29.9-9.2c-6.4-5.5-10.9-11.6-15.2-17.6c-5.6-7.7-10.9-15-19.1-14.2
		c-8.6,0.9-12.5,6.7-16.7,12.9c-7.7,11.5-15.8,23.7-38.1,29.2c-19.1,4.7-38.5,27.4-27.9,47.3c7.1,7.5,13,16.8,16.9,27.5
		C396.5,172,445.7,143.9,500.5,137L500.5,137z M261,338c-46.5,49.6-88.5,94.2-129.5,111.4c63.1,35.9,181.9,52.1,298.9,48.5
		c68.2-2.1,290.7-20.1,310.7-111.1c5.6-25.6-1.1-57.8-17.2-89.6c-16.6-32.9-43-65.1-75.9-89.5c-24.1-17.9-51.7-31.4-81.5-38
		C444.4,142.7,344.6,248.9,261,338L261,338z"/>
</g>
</svg>
