<?xml version="1.0" encoding="utf-8"?>
<!-- Generator: Adobe Illustrator 26.5.0, SVG Export Plug-In . SVG Version: 6.00 Build 0)  -->
<svg version="1.1" id="Layer_1" xmlns="http://www.w3.org/2000/svg" xmlns:xlink="http://www.w3.org/1999/xlink" x="0px" y="0px"
	 viewBox="0 0 187 83.9" style="enable-background:new 0 0 187 83.9;" xml:space="preserve">
<style type="text/css">
	.st0{fill:#F7AF41;}
	.st1{fill:#721146;}
	.st2{fill:#AC2746;}
	.st3{fill:#E63C45;}
	.st4{fill:#F7AF41;stroke:#FFFFFF;stroke-width:2.0773;stroke-miterlimit:10;}
	.st5{fill:#6A593D;}
	.st6{fill:#61A134;}
</style>
<g>
	<path class="st0" d="M129.9,83.9l-44.2-7.2c0-0.2-0.1-0.3-0.3-0.4l0.5-1.5l0.3-2.2c0.1-0.7,0.1-1.2-0.1-1.6l0.6-1.8l0.7-4.6
		c1.8-12.7,9.5-21.4,23-26.1c7.3-3.2,11.5-6.3,12.7-9.3c-0.9-3.5-2.9-5.5-5.8-5.9l-1.5-0.2c-2.2-0.3-4.3,0.1-6.2,1.3l-0.3,0
		c1.7-3.1,4.8-4.4,9.4-3.7c1.9,0.3,3.6,1.4,5.2,3.3l0-0.3c-1.1-3.3-3-5.2-5.8-5.6l-1.5-0.2c-3.9-0.6-6.8,0.9-8.6,4.5
		c-0.4,1.1-0.6,2-0.7,2.8l-0.3,1.8l0.2,0.7l-9-1.3l-0.3,2.2c0,0.4,0.2,0.7,0.5,0.7l7.7,1.1c0.4,0.1,0.6,0.4,0.5,0.7l-0.3,1.9
		l-10.2-1.5c-0.2-1.9,0-4.4,0.4-7.5l1.3-9.3c1.3-8.8,7.2-13.1,18-12.9c0.7-0.1,1.9-0.1,3.8,0.2l1.8,0.3c9.2,1.3,14.7,5.6,16.5,12.8
		c0.4,3.2,0.4,6,0.1,8.2l-0.4,2.5c-1.3,8.9-8.5,15-21.6,18.4c-8.1,3.5-12.4,7.4-13,11.4l-0.1,0.6l0.8,1.1l1.3-0.1
		c5.7,0.6,10.2,1.1,13.4,1.6L119,58l1.3-9c7,0.8,12,1.4,15.2,1.9l0,0.3c-1.4,6.9-3,16-4.8,27.5c-25.8-4.3-40.1-6.6-42.9-7l-0.4,2.5
		c3.3,0.7,5.2,1.1,5.8,1.2c6.7,1,19.1,2.9,37.1,5.9l0.2,0.7L129.9,83.9z M105.8,55.2l-0.3,0c2.6-4.3,9.8-8.2,21.6-11.8
		c2.6-1.5,4.8-3.1,6.7-4.8l0.3,0c-2.6,4.4-8.8,7.9-18.6,10.7C111.9,50.8,108.7,52.7,105.8,55.2z"/>
	<g>
		<g>
			<g>
				<path class="st1" d="M3,32.3l0.7-7.2l7.4-0.3v0h0.6l4.1-0.2h13L28,31.7l-8.3,0.2l0.3,9.2l-0.6,21.7h-8.4l1.6-24.9L12,32.1
					L3,32.3z"/>
				<path class="st1" d="M33.4,48.9l7.7-0.5L39.8,43l-2.5-11.6L33.4,48.9z M25.1,62.7l2.6-15.6L34,24.8h5v0l1.1,0l10.5,38l-6-0.2
					l-1.2-6.4l-0.5-2.1L32,57L31,62.7H25.1z"/>
				<path class="st1" d="M50,42.6c0-2.4,0.3-4.6,0.9-6.7c0.6-2.1,1.5-4.3,2.7-6.6c1.1-2.1,2.8-3.4,5.1-4c1.3-0.3,2.8-0.5,4.5-0.5
					c1.3,0,2.7,0.1,4.2,0.3c0.9,0.1,1.8,0.4,2.6,0.9c0.8,0.5,1.4,1.1,2,1.7c0.5,0.7,1,1.4,1.4,2.2c0.4,0.8,0.7,1.6,1,2.3
					c0.2,0.8,0.4,1.4,0.6,2.1c0.1,0.6,0.3,1.1,0.3,1.5l0.1,0.6l-5.9,1.2c0-0.2,0-0.4-0.1-0.7c0-0.3-0.2-0.8-0.5-1.5
					c-0.3-0.7-0.6-1.3-1-1.8c-0.4-0.5-1.1-0.9-2-1.2c-0.5-0.2-1.1-0.3-1.7-0.3c-0.5,0-0.9,0.1-1.5,0.2c-0.9,0.2-1.7,0.5-2.4,1
					c-0.7,0.5-1.3,1-1.7,1.6c-0.4,0.6-0.8,1.3-1.1,2c-0.3,0.7-0.5,1.4-0.7,2.1c-0.1,0.7-0.3,1.3-0.3,1.9c-0.1,0.6-0.1,1-0.2,1.4v0.5
					c0,0,0,0.2,0,0.4c0,0.3,0,0.7,0,1.2c0.1,0.5,0.1,1.1,0.1,1.7c0,0.6,0.1,1.3,0.3,2c0.1,0.7,0.3,1.4,0.5,2.1
					c0.2,0.7,0.4,1.4,0.8,2c0.3,0.6,0.7,1.2,1.1,1.7c0.4,0.5,0.9,0.9,1.5,1.2c0.6,0.3,1.3,0.4,2,0.4c1.1,0,2.1-0.2,3.1-0.6
					c0.9-0.4,1.7-0.9,2.2-1.4c0.5-0.6,1-1.1,1.4-1.7s0.6-1,0.8-1.4l0.2-0.6l5,2.7c0,0.1,0,0.3-0.1,0.6c0,0.3-0.2,0.8-0.5,1.5
					c-0.3,0.7-0.6,1.4-0.9,2.1c-0.4,0.7-0.9,1.4-1.6,2.2c-0.7,0.8-1.5,1.5-2.4,2.1c-0.9,0.6-2.1,1.1-3.5,1.4
					c-1.3,0.4-2.8,0.5-4.4,0.5c-0.1,0-0.2,0-0.2,0C53.9,62.6,50,55.9,50,42.6z"/>
				<path class="st1" d="M82.9,43.3c0,0.1,0,0.3,0,0.4c0,0.4,0,0.8,0.1,1.4c0.1,0.8,0.2,1.6,0.3,2.4c0.1,0.9,0.3,1.8,0.6,2.7
					c0.3,0.9,0.7,1.7,1.1,2.5c0.4,0.8,1,1.4,1.7,1.9c0.7,0.5,1.5,0.8,2.4,0.8h0.2h0.1h0.1h0.2c0.9-0.1,1.7-0.3,2.4-0.8
					c0.7-0.5,1.3-1.1,1.7-1.9c0.4-0.8,0.8-1.6,1.1-2.5c0.3-0.9,0.5-1.8,0.6-2.7c0.1-0.9,0.2-1.7,0.3-2.4c0.1-0.7,0.1-1.3,0.1-1.8
					v-0.7c0-0.2,0-0.5,0-0.9c0-0.4-0.1-1.1-0.3-2.1s-0.4-1.9-0.8-2.8c-0.3-0.9-0.8-1.7-1.5-2.6c-0.7-0.9-1.5-1.5-2.5-1.9
					c-0.4-0.2-0.8-0.2-1.2-0.2L88,32.4c-1,0.4-1.8,1-2.5,1.9c-0.7,0.9-1.2,1.7-1.5,2.7c-0.3,0.9-0.6,1.8-0.8,2.7
					c-0.2,0.9-0.3,1.6-0.3,2.1l0,0.9C82.9,42.6,82.9,42.9,82.9,43.3z M76.7,42.4c0-2,0.2-4,0.7-6c0.5-2.2,1.5-4.5,2.8-7.1
					c1.5-2.9,4.6-4.4,9.1-4.5c4.5,0.1,7.5,1.6,9.1,4.5c1.4,2.6,2.3,4.9,2.8,7.1c0.5,2,0.7,4,0.7,6c0,3.7-0.3,6.9-0.8,9.4
					c-0.9,4.2-2.5,7.2-4.9,9c-1.9,1.1-4.2,1.7-6.8,1.8c-2.7-0.1-4.9-0.7-6.9-1.8c-2.4-1.8-4-4.8-4.9-9
					C76.9,49.3,76.7,46.2,76.7,42.4z"/>
			</g>
			<g>
				<polygon class="st2" points="1.5,30.8 2.2,23.6 9.6,23.3 9.6,23.3 10.1,23.3 14.3,23.1 27.3,23.1 26.5,30.2 18.3,30.4 
					18.6,39.6 18,61.2 9.6,61.2 11.2,36.3 10.5,30.6 				"/>
				<path class="st2" d="M31.9,47.4l7.7-0.5l-1.4-5.5l-2.5-11.6L31.9,47.4z M23.6,61.2l2.6-15.6l6.3-22.3h5v0l1.1,0l10.5,38l-6-0.2
					l-1.2-6.4l-0.5-2.1l-10.7,2.9l-1.1,5.7H23.6z"/>
				<path class="st2" d="M48.5,41.1c0-2.4,0.3-4.6,0.9-6.7c0.6-2.1,1.5-4.3,2.7-6.6c1.1-2.1,2.8-3.4,5.1-4c1.3-0.3,2.8-0.5,4.5-0.5
					c1.3,0,2.7,0.1,4.2,0.3c0.9,0.1,1.8,0.4,2.6,0.9c0.8,0.5,1.4,1.1,2,1.7c0.5,0.7,1,1.4,1.4,2.2c0.4,0.8,0.7,1.6,1,2.3
					c0.2,0.8,0.4,1.4,0.6,2.1c0.1,0.6,0.3,1.1,0.3,1.5l0.1,0.6l-5.9,1.2c0-0.2,0-0.4-0.1-0.7c0-0.3-0.2-0.8-0.5-1.5
					c-0.3-0.7-0.6-1.3-1-1.8c-0.4-0.5-1.1-0.9-2-1.2c-0.5-0.2-1.1-0.3-1.7-0.3c-0.5,0-0.9,0.1-1.5,0.2c-0.9,0.2-1.7,0.5-2.4,1
					c-0.7,0.5-1.3,1-1.7,1.6c-0.4,0.6-0.8,1.3-1.1,2c-0.3,0.7-0.5,1.4-0.7,2.1c-0.1,0.7-0.3,1.3-0.3,1.9c-0.1,0.6-0.1,1-0.2,1.4v0.5
					c0,0,0,0.2,0,0.4c0,0.3,0,0.7,0,1.2c0.1,0.5,0.1,1.1,0.1,1.7c0,0.6,0.1,1.3,0.3,2c0.1,0.7,0.3,1.4,0.5,2.1
					c0.2,0.7,0.4,1.4,0.8,2c0.3,0.6,0.7,1.2,1.1,1.7c0.4,0.5,0.9,0.9,1.5,1.2c0.6,0.3,1.3,0.4,2,0.4c1.1,0,2.1-0.2,3.1-0.6
					c0.9-0.4,1.7-0.9,2.2-1.4c0.5-0.6,1-1.1,1.4-1.7s0.6-1,0.8-1.4l0.2-0.6l5,2.7c0,0.1,0,0.3-0.1,0.6c0,0.3-0.2,0.8-0.5,1.5
					c-0.3,0.7-0.6,1.4-0.9,2.1c-0.4,0.7-0.9,1.4-1.6,2.2c-0.7,0.8-1.5,1.5-2.4,2.1c-0.9,0.6-2.1,1.1-3.5,1.4
					c-1.3,0.4-2.8,0.5-4.4,0.5c-0.1,0-0.2,0-0.2,0C52.4,61.1,48.5,54.4,48.5,41.1z"/>
				<path class="st2" d="M81.4,41.8c0,0.1,0,0.3,0,0.4c0,0.4,0,0.8,0.1,1.4c0.1,0.8,0.2,1.6,0.3,2.4c0.1,0.9,0.3,1.8,0.6,2.7
					c0.3,0.9,0.7,1.7,1.1,2.5c0.4,0.8,1,1.4,1.7,1.9c0.7,0.5,1.5,0.8,2.4,0.8h0.2h0.1h0.1h0.2c0.9-0.1,1.7-0.3,2.4-0.8
					c0.7-0.5,1.3-1.1,1.7-1.9c0.4-0.8,0.8-1.6,1.1-2.5c0.3-0.9,0.5-1.8,0.6-2.7c0.1-0.9,0.2-1.7,0.3-2.4c0.1-0.7,0.1-1.3,0.1-1.8
					v-0.7c0-0.2,0-0.5,0-0.9c0-0.4-0.1-1.1-0.3-2.1s-0.4-1.9-0.8-2.8c-0.3-0.9-0.8-1.7-1.5-2.6c-0.7-0.9-1.5-1.5-2.5-1.9
					c-0.4-0.2-0.8-0.2-1.2-0.2l-1.2,0.2c-1,0.4-1.8,1-2.5,1.9c-0.7,0.9-1.2,1.7-1.5,2.7c-0.3,0.9-0.6,1.8-0.8,2.7
					c-0.2,0.9-0.3,1.6-0.3,2.1l0,0.9C81.4,41.1,81.5,41.4,81.4,41.8z M75.2,40.9c0-2,0.2-4,0.7-6c0.5-2.2,1.5-4.5,2.8-7.1
					c1.5-2.9,4.6-4.7,9.1-4.5c4.5,0.2,7.5,1.6,9.1,4.5c1.4,2.6,2.3,4.9,2.8,7.1c0.5,2,0.7,4,0.7,6c0,3.7-0.3,6.9-0.8,9.4
					c-0.9,4.2-2.4,7.4-4.9,9c-1.9,1.2-4.2,1.8-6.8,1.8c-2.7,0-5-0.6-6.9-1.8c-2.5-1.6-4-4.8-4.9-9C75.4,47.8,75.2,44.7,75.2,40.9z"
					/>
			</g>
			<g>
				<path class="st3" d="M0,29.3l0.7-7.2l7.4-0.3v0h0.6l4.1-0.2h13L25,28.7l-8.3,0.2l0.3,9.2l-0.6,21.7H8.1l1.6-24.9L9,29.1L0,29.3z
					"/>
				<path class="st3" d="M30.4,45.9l7.7-0.5L36.8,40l-2.5-11.6L30.4,45.9z M22.1,59.7l2.6-15.6L31,21.8h5v0l1.1,0l10.5,38l-6-0.2
					l-1.2-6.4l-0.5-2.1L29,54L28,59.7H22.1z"/>
				<path class="st3" d="M47,39.6c0-2.4,0.3-4.6,0.9-6.7c0.6-2.1,1.5-4.3,2.7-6.6c1.1-2.1,2.8-3.4,5.1-4c1.3-0.3,2.8-0.5,4.5-0.5
					c1.3,0,2.7,0.1,4.2,0.3c0.9,0.1,1.8,0.4,2.6,0.9c0.8,0.5,1.4,1.1,2,1.7c0.5,0.7,1,1.4,1.4,2.2c0.4,0.8,0.7,1.6,1,2.3
					c0.2,0.8,0.4,1.4,0.6,2.1c0.1,0.6,0.3,1.1,0.3,1.5l0.1,0.6l-5.9,1.2c0-0.2,0-0.4-0.1-0.7c0-0.3-0.2-0.8-0.5-1.5
					c-0.3-0.7-0.6-1.3-1-1.8c-0.4-0.5-1.1-0.9-2-1.2c-0.5-0.2-1.1-0.3-1.7-0.3c-0.5,0-0.9,0.1-1.5,0.2c-0.9,0.2-1.7,0.5-2.4,1
					c-0.7,0.5-1.3,1-1.7,1.6c-0.4,0.6-0.8,1.3-1.1,2c-0.3,0.7-0.5,1.4-0.7,2.1c-0.1,0.7-0.3,1.3-0.3,1.9c-0.1,0.6-0.1,1-0.2,1.4v0.5
					c0,0,0,0.2,0,0.4c0,0.3,0,0.7,0,1.2c0.1,0.5,0.1,1.1,0.1,1.7c0,0.6,0.1,1.3,0.3,2c0.1,0.7,0.3,1.4,0.5,2.1
					c0.2,0.7,0.4,1.4,0.8,2c0.3,0.6,0.7,1.2,1.1,1.7c0.4,0.5,0.9,0.9,1.5,1.2c0.6,0.3,1.3,0.4,2,0.4c1.1,0,2.1-0.2,3.1-0.6
					c0.9-0.4,1.7-0.9,2.2-1.4c0.5-0.6,1-1.1,1.4-1.7s0.6-1,0.8-1.4l0.2-0.6l5,2.7c0,0.1,0,0.3-0.1,0.6c0,0.3-0.2,0.8-0.5,1.5
					c-0.3,0.7-0.6,1.4-0.9,2.1c-0.4,0.7-0.9,1.4-1.6,2.2c-0.7,0.8-1.5,1.5-2.4,2.1c-0.9,0.6-2.1,1.1-3.5,1.4
					c-1.3,0.4-2.8,0.5-4.4,0.5c-0.1,0-0.2,0-0.2,0C50.9,59.6,47,52.9,47,39.6z"/>
				<path class="st3" d="M79.9,40.3c0,0.1,0,0.3,0,0.4c0,0.4,0,0.8,0.1,1.4c0.1,0.8,0.2,1.6,0.3,2.4c0.1,0.9,0.3,1.8,0.6,2.7
					c0.3,0.9,0.7,1.7,1.1,2.5c0.4,0.8,1,1.4,1.7,1.9c0.7,0.5,1.5,0.8,2.4,0.8h0.2h0.1h0.1h0.2c0.9-0.1,1.7-0.3,2.4-0.8
					c0.7-0.5,1.3-1.1,1.7-1.9c0.4-0.8,0.8-1.6,1.1-2.5c0.3-0.9,0.5-1.8,0.6-2.7c0.1-0.9,0.2-1.7,0.3-2.4c0.1-0.7,0.1-1.3,0.1-1.8
					v-0.7c0-0.2,0-0.5,0-0.9c0-0.4-0.1-1.1-0.3-2.1s-0.4-1.9-0.8-2.8c-0.3-0.9-0.8-1.7-1.5-2.6c-0.7-0.9-1.5-1.5-2.5-1.9
					c-0.4-0.2-0.8-0.2-1.2-0.2L85,29.4c-1,0.4-1.8,1-2.5,1.9c-0.7,0.9-1.2,1.7-1.5,2.7c-0.3,0.9-0.6,1.8-0.8,2.7
					c-0.2,0.9-0.3,1.6-0.3,2.1l0,0.9C79.9,39.6,79.9,39.9,79.9,40.3z M73.7,39.4c0-2,0.2-4,0.7-6c0.5-2.2,1.5-4.5,2.8-7.1
					c1.5-2.9,4.6-4.4,9.1-4.5c4.5,0.1,7.5,1.6,9.1,4.5c1.4,2.6,2.3,4.9,2.8,7.1c0.5,2,0.7,4,0.7,6c0,3.7-0.3,6.9-0.8,9.4
					c-0.9,4.2-2.5,7.2-4.9,9c-1.9,1.1-4.2,1.7-6.8,1.8c-2.7-0.1-4.9-0.7-6.9-1.8c-2.4-1.8-4-4.8-4.9-9
					C73.9,46.3,73.7,43.2,73.7,39.4z"/>
			</g>
		</g>
		<g>
			<path class="st1" d="M129.4,83.4c-21.2-3.8-35.4-6.2-42.7-7.3l0.9-6.1c2-13.3,9.5-22.2,22.6-26.4c8.1-3.5,12.4-7,13-10.8l0.2-1.2
				c0.6-4.1-1.5-6.9-6.4-8.2l-0.3,0c-4.4-0.7-7.3,1.1-8.8,5.5c-0.1,0.7-0.3,1.2-0.5,1.5l0,1.9l-0.1,0.9l-9.9-1.6
				c0-2.4,0.2-5.3,0.7-8.6l0.5-3.1c1.1-7.2,5.4-11.4,12.9-12.4c2.4-0.5,5.4-0.4,9.1,0.2c13.2,2.1,18.8,9.6,16.8,22.6
				c-1.5,9.7-8.9,16.1-22.5,19.3c-7.3,3.5-11.2,7.2-11.8,11c0.1,0.4,0.2,0.8,0.2,1c8.3,1.1,13.2,1.8,14.7,2l0.4-0.6l1.3-8.9
				c7.1,0.9,12,1.6,14.7,2l0,0.3c-2,10.8-3.5,19.3-4.4,25.6L129.4,83.4z"/>
		</g>
		<g>
			<path class="st4" d="M130.8,78.7c-22-3.8-36.8-6.3-44.4-7.5l1-6.2c2.1-13.6,9.9-22.6,23.5-26.9c8.4-3.5,12.9-7.2,13.5-11l0.2-1.3
				c0.6-4.2-1.6-7-6.7-8.3l-0.3,0c-4.6-0.7-7.6,1.2-9.1,5.6c-0.1,0.7-0.3,1.2-0.5,1.5l0,1.9l-0.1,0.9l-10.2-1.6
				c0-2.5,0.2-5.4,0.7-8.8l0.5-3.1c1.1-7.4,5.6-11.6,13.4-12.6c2.5-0.5,5.6-0.4,9.5,0.2c13.7,2.1,19.5,9.8,17.5,23
				c-1.5,9.9-9.3,16.4-23.4,19.6c-7.6,3.6-11.6,7.3-12.2,11.2c0.2,0.4,0.2,0.8,0.2,1c8.6,1.1,13.7,1.8,15.3,2l0.4-0.6l1.4-9
				c7.4,0.9,12.4,1.6,15.3,2l0,0.3c-2.1,11-3.6,19.6-4.6,26L130.8,78.7z"/>
		</g>
		<g>
			<g>
				<path class="st1" d="M133.9,43.8c0-0.5,0-1.1,0-1.6c0-1.5,0.1-2.9,0.2-4.3c0.2-1.8,0.5-3.4,0.9-4.7c0.4-1.3,0.9-2.5,1.4-3.6
					c0.5-1.1,1.1-2,1.7-2.7c0.6-0.7,1.2-1.4,1.8-1.9c0.6-0.6,1.2-1,1.7-1.3c0.6-0.3,1-0.5,1.5-0.7c0.4-0.2,0.8-0.3,1-0.4l0.4-0.1
					c1.2-0.2,2.3-0.3,3.4-0.3c1.3,0,2.4,0.1,3.4,0.4c0.7,0.2,1.4,0.7,2.1,1.4c0.7,0.7,1.3,1.6,1.7,2.5c0.5,0.9,0.9,1.8,1.3,2.7
					c0.4,0.9,0.6,1.6,0.8,2.2l0.3,0.9l-5.1,2.6c0-0.1,0-0.2-0.1-0.3c0-0.1-0.1-0.4-0.3-0.8c-0.2-0.4-0.3-0.7-0.5-1.1
					c-0.2-0.3-0.4-0.7-0.8-1.2c-0.3-0.4-0.7-0.8-1.1-1.1c-0.4-0.3-0.8-0.6-1.4-0.8c-0.5-0.2-1.1-0.3-1.8-0.3c-0.9,0-1.6,0.2-2.3,0.5
					c-0.7,0.3-1.2,0.7-1.6,1.2c-0.4,0.5-0.7,1-1,1.6c-0.3,0.6-0.5,1.1-0.5,1.6c-0.1,0.4-0.2,0.8-0.2,1.2c-0.2,1.2-0.3,3.1-0.3,5.7
					c0,0.7-0.1,1.4-0.1,2c0,1.7,0.1,3.1,0.2,4.3c0.4,1.8,1,3.3,1.9,4.3c0.9,1,2.3,1.7,4.2,1.9c0.3,0,0.6,0.1,0.8,0.1
					c0.5,0,1-0.1,1.5-0.2c0.7-0.2,1.2-0.5,1.7-0.9c0.4-0.4,0.8-0.9,1.1-1.4c0.3-0.5,0.6-1,0.7-1.6c0.1-0.5,0.3-1,0.4-1.5
					c0.1-0.4,0.1-0.8,0.2-1.1v-0.4l-4.4-0.5l0.5-5.2l9.9,0.4l-0.5,7.8c-0.1,1.6-0.4,3.1-1,4.4c-0.5,1.3-1.1,2.3-1.8,3.1
					c-0.7,0.7-1.5,1.4-2.3,1.9c-0.8,0.5-1.7,0.9-2.5,1.1c-0.8,0.2-1.6,0.3-2.2,0.4c-0.7,0.1-1.2,0.1-1.6,0.1l-0.6,0
					c-0.2,0-0.4,0-0.7,0c-0.3,0-0.8-0.1-1.7-0.3c-0.8-0.2-1.7-0.4-2.4-0.7c-0.8-0.3-1.6-0.9-2.6-1.7c-1-0.8-1.8-1.8-2.5-2.9
					c-0.7-1.1-1.3-2.6-1.8-4.5C134.3,48.3,134,46.1,133.9,43.8z"/>
				<path class="st1" d="M168.1,40.8c0,0.1,0,0.3,0,0.4c0,0.4,0,0.8,0.1,1.4c0.1,0.8,0.2,1.6,0.3,2.4c0.1,0.9,0.3,1.8,0.6,2.7
					c0.3,0.9,0.7,1.7,1.1,2.5c0.4,0.8,1,1.4,1.6,1.9c0.7,0.5,1.5,0.8,2.4,0.8h0.2h0.1h0.1h0.2c0.9-0.1,1.7-0.3,2.4-0.8
					c0.7-0.5,1.2-1.1,1.7-1.9c0.4-0.8,0.8-1.6,1.1-2.5c0.3-0.9,0.5-1.8,0.6-2.7c0.1-0.9,0.2-1.7,0.3-2.4c0.1-0.7,0.1-1.3,0.1-1.8
					v-0.7c0-0.2,0-0.5,0-0.9c0-0.4-0.1-1.1-0.3-2.1c-0.2-1-0.4-1.9-0.8-2.8c-0.3-0.8-0.8-1.7-1.5-2.6c-0.7-0.9-1.5-1.5-2.5-1.9
					c-0.4-0.2-0.8-0.2-1.2-0.2l-1.2,0.2c-1,0.4-1.8,1-2.5,1.9c-0.7,0.8-1.2,1.7-1.5,2.7c-0.3,0.9-0.6,1.8-0.8,2.7
					c-0.2,0.9-0.3,1.6-0.3,2.1l0,0.9C168.1,40.1,168.1,40.4,168.1,40.8z M161.8,39.9c0-2,0.2-4,0.7-6c0.5-2.2,1.5-4.5,2.8-7.1
					c1.5-2.9,4.5-4.4,9-4.5c4.5,0.1,7.5,1.6,9,4.5c1.4,2.6,2.3,4.9,2.8,7.1c0.5,2,0.7,4,0.7,6c0,3.7-0.3,6.9-0.8,9.4
					c-0.9,4.2-2.5,7.2-4.9,9c-1.9,1.1-4.2,1.7-6.8,1.8c-2.6-0.1-4.9-0.7-6.9-1.8c-2.4-1.8-4-4.8-4.9-9
					C162.1,46.8,161.8,43.6,161.8,39.9z"/>
			</g>
			<g>
				<path class="st5" d="M131.9,42.8c0-0.5,0-1.1,0-1.6c0-1.5,0.1-2.9,0.2-4.3c0.2-1.8,0.5-3.4,0.9-4.7c0.4-1.3,0.9-2.5,1.4-3.6
					c0.5-1.1,1.1-2,1.7-2.7c0.6-0.7,1.2-1.4,1.8-1.9c0.6-0.6,1.2-1,1.7-1.3c0.6-0.3,1-0.5,1.5-0.7c0.4-0.2,0.8-0.3,1-0.4l0.4-0.1
					c1.2-0.2,2.3-0.3,3.4-0.3c1.3,0,2.4,0.1,3.4,0.4c0.7,0.2,1.4,0.7,2.1,1.4c0.7,0.7,1.3,1.6,1.7,2.5c0.5,0.9,0.9,1.8,1.3,2.7
					c0.4,0.9,0.6,1.6,0.8,2.2l0.3,0.9l-5.1,2.6c0-0.1,0-0.2-0.1-0.3c0-0.1-0.1-0.4-0.3-0.8c-0.2-0.4-0.3-0.7-0.5-1.1
					c-0.2-0.3-0.4-0.7-0.8-1.2c-0.3-0.4-0.7-0.8-1.1-1.1c-0.4-0.3-0.8-0.6-1.4-0.8c-0.5-0.2-1.1-0.3-1.8-0.3c-0.9,0-1.6,0.2-2.3,0.5
					c-0.7,0.3-1.2,0.7-1.6,1.2c-0.4,0.5-0.7,1-1,1.6c-0.3,0.6-0.5,1.1-0.5,1.6c-0.1,0.4-0.2,0.8-0.2,1.2c-0.2,1.2-0.2,3.1-0.3,5.7
					c0,0.7-0.1,1.4-0.1,2c0,1.7,0,3.1,0.2,4.3c0.3,1.8,1,3.3,1.9,4.3c0.9,1,2.3,1.7,4.2,1.9c0.3,0,0.6,0.1,0.8,0.1
					c0.5,0,1-0.1,1.5-0.2c0.7-0.2,1.2-0.5,1.7-0.9c0.4-0.4,0.8-0.9,1.1-1.4c0.3-0.5,0.6-1,0.7-1.6c0.1-0.5,0.3-1,0.4-1.5
					c0.1-0.4,0.1-0.8,0.2-1.1v-0.4l-4.4-0.5l0.5-5.2l9.9,0.4l-0.5,7.8c-0.1,1.6-0.4,3.1-1,4.4c-0.5,1.3-1.1,2.3-1.8,3.1
					c-0.7,0.7-1.5,1.4-2.3,1.9c-0.8,0.5-1.7,0.9-2.5,1.1c-0.8,0.2-1.6,0.3-2.2,0.4c-0.7,0.1-1.2,0.1-1.6,0.1l-0.6,0
					c-0.2,0-0.4,0-0.7,0c-0.3,0-0.8-0.1-1.7-0.3c-0.8-0.2-1.7-0.4-2.4-0.7c-0.8-0.3-1.6-0.9-2.6-1.7c-1-0.8-1.8-1.8-2.5-2.9
					c-0.7-1.1-1.3-2.6-1.8-4.5C132.3,47.3,132,45.1,131.9,42.8z"/>
				<path class="st5" d="M166.1,39.8c0,0.1,0,0.3,0,0.4c0,0.4,0,0.8,0.1,1.4c0.1,0.7,0.2,1.6,0.3,2.4c0.1,0.9,0.3,1.8,0.6,2.7
					c0.3,0.9,0.7,1.7,1.1,2.5c0.4,0.8,1,1.4,1.6,1.9c0.7,0.5,1.5,0.8,2.4,0.8h0.2h0.1h0.1h0.2c0.9-0.1,1.7-0.3,2.4-0.8
					c0.7-0.5,1.2-1.1,1.7-1.9c0.4-0.8,0.8-1.6,1.1-2.5c0.3-0.9,0.5-1.8,0.6-2.7c0.1-0.9,0.2-1.7,0.3-2.4c0.1-0.7,0.1-1.3,0.1-1.8
					v-0.7c0-0.2,0-0.5,0-0.9c0-0.4-0.1-1.1-0.3-2.1c-0.2-1-0.4-1.9-0.8-2.8c-0.3-0.8-0.8-1.7-1.5-2.6c-0.7-0.9-1.5-1.5-2.5-1.9
					c-0.4-0.2-0.8-0.2-1.2-0.2l-1.2,0.2c-1,0.4-1.8,1-2.5,1.9c-0.7,0.8-1.2,1.7-1.5,2.7c-0.3,0.9-0.6,1.8-0.8,2.7
					c-0.2,0.9-0.3,1.6-0.3,2.1l0,0.9C166.1,39.1,166.1,39.4,166.1,39.8z M159.8,38.9c0-2,0.2-4,0.7-6c0.5-2.2,1.5-4.5,2.8-7.1
					c1.5-2.9,4.5-4.7,9-4.5c4.5,0.2,7.5,1.6,9,4.5c1.4,2.6,2.3,4.9,2.8,7.1c0.5,2,0.7,4,0.7,6c0,3.7-0.3,6.9-0.8,9.4
					c-0.9,4.2-2.4,7.4-4.9,9c-1.9,1.2-4.2,1.8-6.8,1.8c-2.6,0-5-0.6-6.9-1.8c-2.5-1.6-4-4.8-4.9-9C160.1,45.8,159.8,42.6,159.8,38.9
					z"/>
			</g>
			<g>
				<path class="st6" d="M129.9,41.8c0-0.5,0-1.1,0-1.6c0-1.5,0.1-2.9,0.2-4.3c0.2-1.8,0.5-3.4,0.9-4.7c0.4-1.3,0.9-2.5,1.4-3.6
					c0.5-1.1,1.1-2,1.7-2.7c0.6-0.7,1.2-1.4,1.8-1.9c0.6-0.6,1.2-1,1.7-1.3c0.6-0.3,1-0.5,1.5-0.7c0.4-0.2,0.8-0.3,1-0.4l0.4-0.1
					c1.2-0.2,2.3-0.3,3.4-0.3c1.3,0,2.4,0.1,3.4,0.4c0.7,0.2,1.4,0.7,2.1,1.4c0.7,0.7,1.3,1.6,1.7,2.5c0.5,0.9,0.9,1.8,1.3,2.7
					c0.4,0.9,0.6,1.6,0.8,2.2l0.3,0.9l-5.1,2.6c0-0.1,0-0.2-0.1-0.3c0-0.1-0.1-0.4-0.3-0.8c-0.2-0.4-0.3-0.7-0.5-1.1
					c-0.2-0.3-0.4-0.7-0.8-1.2c-0.3-0.4-0.7-0.8-1.1-1.1c-0.4-0.3-0.8-0.6-1.4-0.8c-0.5-0.2-1.1-0.3-1.8-0.3c-0.9,0-1.6,0.2-2.3,0.5
					c-0.7,0.3-1.2,0.7-1.6,1.2c-0.4,0.5-0.7,1-1,1.6c-0.3,0.6-0.5,1.1-0.5,1.6c-0.1,0.4-0.2,0.8-0.2,1.2c-0.2,1.2-0.3,3.1-0.3,5.7
					c0,0.7-0.1,1.4-0.1,2c0,1.7,0.1,3.1,0.2,4.3c0.4,1.8,1,3.3,1.9,4.3c0.9,1,2.3,1.7,4.2,1.9c0.3,0,0.6,0.1,0.8,0.1
					c0.5,0,1-0.1,1.5-0.2c0.7-0.2,1.2-0.5,1.7-0.9c0.4-0.4,0.8-0.9,1.1-1.4c0.3-0.5,0.6-1,0.7-1.6c0.1-0.5,0.3-1,0.4-1.5
					c0.1-0.4,0.1-0.8,0.2-1.1v-0.4l-4.4-0.5l0.5-5.2l9.9,0.4l-0.5,7.8c-0.1,1.6-0.4,3.1-1,4.4c-0.5,1.3-1.1,2.3-1.8,3.1
					c-0.7,0.7-1.5,1.4-2.3,1.9c-0.8,0.5-1.7,0.9-2.5,1.1c-0.8,0.2-1.6,0.3-2.2,0.4c-0.7,0.1-1.2,0.1-1.6,0.1l-0.6,0
					c-0.2,0-0.4,0-0.7,0c-0.3,0-0.8-0.1-1.7-0.3c-0.8-0.2-1.7-0.4-2.4-0.7c-0.8-0.3-1.6-0.9-2.6-1.7c-1-0.8-1.8-1.8-2.5-2.9
					c-0.7-1.1-1.3-2.6-1.8-4.5C130.3,46.3,130,44.1,129.9,41.8z"/>
				<path class="st6" d="M164.1,38.8c0,0.1,0,0.3,0,0.4c0,0.4,0,0.8,0.1,1.4c0.1,0.8,0.2,1.6,0.3,2.4c0.1,0.9,0.3,1.8,0.6,2.7
					c0.3,0.9,0.7,1.7,1.1,2.5c0.4,0.8,1,1.4,1.6,1.9c0.7,0.5,1.5,0.8,2.4,0.8h0.2h0.1h0.1h0.2c0.9-0.1,1.7-0.3,2.4-0.8
					c0.7-0.5,1.2-1.1,1.7-1.9c0.4-0.8,0.8-1.6,1.1-2.5c0.3-0.9,0.5-1.8,0.6-2.7c0.1-0.9,0.2-1.7,0.3-2.4c0.1-0.7,0.1-1.3,0.1-1.8
					v-0.7c0-0.2,0-0.5,0-0.9c0-0.4-0.1-1.1-0.3-2.1c-0.2-1-0.4-1.9-0.8-2.8c-0.3-0.8-0.8-1.7-1.5-2.6c-0.7-0.9-1.5-1.5-2.5-1.9
					c-0.4-0.2-0.8-0.2-1.2-0.2l-1.2,0.2c-1,0.4-1.8,1-2.5,1.9c-0.7,0.8-1.2,1.7-1.5,2.7c-0.3,0.9-0.6,1.8-0.8,2.7
					c-0.2,0.9-0.3,1.6-0.3,2.1l0,0.9C164.1,38.1,164.1,38.4,164.1,38.8z M157.8,37.9c0-2,0.2-4,0.7-6c0.5-2.2,1.5-4.5,2.8-7.1
					c1.5-2.9,4.5-4.4,9-4.5c4.5,0.1,7.5,1.6,9,4.5c1.4,2.6,2.3,4.9,2.8,7.1c0.5,2,0.7,4,0.7,6c0,3.7-0.3,6.9-0.8,9.4
					c-0.9,4.2-2.5,7.2-4.9,9c-1.9,1.1-4.2,1.7-6.8,1.8c-2.6-0.1-4.9-0.7-6.9-1.8c-2.4-1.8-4-4.8-4.9-9
					C158.1,44.8,157.8,41.6,157.8,37.9z"/>
			</g>
		</g>
	</g>
</g>
</svg>
